<?xml version="1.0" encoding="UTF-8"?> <svg xmlns="http://www.w3.org/2000/svg" width="262" height="275" viewBox="0 0 262 275" fill="none"> <path fill-rule="evenodd" clip-rule="evenodd" d="M117.208 5.10878C114.791 5.17478 112.64 5.40178 112.428 5.61378C112.215 5.82678 110.653 5.99978 108.955 5.99978C107.258 5.99978 105.809 6.16978 105.735 6.37778C105.662 6.58478 104.469 6.79478 103.085 6.84378C101.7 6.89278 100.474 7.08278 100.361 7.26578C100.248 7.44978 99.4448 7.59978 98.5778 7.59978C97.7108 7.59978 97.0018 7.77978 97.0018 7.99978C97.0018 8.21978 96.0228 8.39978 94.8258 8.39978C93.6288 8.39978 92.5378 8.57979 92.4018 8.79979C92.2658 9.01979 91.4448 9.19978 90.5778 9.19978C89.7108 9.19978 89.0018 9.37978 89.0018 9.59978C89.0018 9.81978 88.3718 9.99978 87.6018 9.99978C86.8318 9.99978 86.2018 10.1798 86.2018 10.3998C86.2018 10.6198 85.4928 10.7998 84.6258 10.7998C83.7588 10.7998 82.9378 10.9798 82.8018 11.1998C82.6658 11.4198 82.0248 11.5998 81.3778 11.5998C80.7308 11.5998 80.2018 11.7798 80.2018 11.9998C80.2018 12.2198 79.6618 12.3998 79.0018 12.3998C78.3418 12.3998 77.8018 12.5798 77.8018 12.7998C77.8018 13.0198 77.2618 13.1998 76.6018 13.1998C75.9418 13.1998 75.4018 13.3798 75.4018 13.5998C75.4018 13.8198 74.7828 13.9998 74.0258 13.9998C73.2688 13.9998 72.5378 14.1798 72.4018 14.3998C72.2658 14.6198 71.8048 14.7998 71.3778 14.7998C70.9508 14.7998 70.6018 14.9798 70.6018 15.1998C70.6018 15.4198 70.0618 15.5998 69.4018 15.5998C68.7418 15.5998 68.2018 15.7798 68.2018 15.9998C68.2018 16.2198 67.7628 16.3998 67.2258 16.3998C66.6888 16.3998 66.1378 16.5798 66.0018 16.7998C65.8658 17.0198 65.4048 17.1998 64.9778 17.1998C64.5508 17.1998 64.2018 17.3798 64.2018 17.5998C64.2018 17.8198 63.8418 17.9998 63.4018 17.9998C62.9618 17.9998 62.6018 18.1798 62.6018 18.3998C62.6018 18.6198 62.2528 18.7998 61.8268 18.7998C61.3998 18.7998 60.0668 19.3398 58.8648 19.9998C57.6618 20.6598 56.3908 21.1998 56.0398 21.1998C55.6888 21.1998 55.4018 21.3798 55.4018 21.5998C55.4018 21.8198 55.0418 21.9998 54.6018 21.9998C54.1618 21.9998 53.8018 22.1798 53.8018 22.3998C53.8018 22.6198 53.5238 22.7998 53.1848 22.7998C52.8458 22.7998 52.1818 23.1598 51.7098 23.5998C51.2378 24.0398 50.5588 24.3998 50.2018 24.3998C49.8448 24.3998 49.1658 24.7598 48.6938 25.1998C48.2218 25.6398 47.5578 25.9998 47.2188 25.9998C46.8798 25.9998 46.6018 26.1798 46.6018 26.3998C46.6018 26.6198 46.2418 26.7998 45.8018 26.7998C45.3618 26.7998 45.0018 26.9798 45.0018 27.1998C45.0018 27.4198 44.7658 27.5998 44.4768 27.5998C44.1888 27.5998 43.5658 27.9598 43.0938 28.3998C42.6218 28.8398 42.0858 29.1998 41.9028 29.1998C41.7198 29.1998 40.7738 29.9198 39.8018 30.7998C38.8298 31.6798 37.8418 32.3998 37.6058 32.3998C37.3708 32.3998 36.9188 32.7598 36.6018 33.1998C36.2848 33.6398 35.8168 33.9998 35.5618 33.9998C35.3068 33.9998 34.3568 34.7198 33.4498 35.5998C32.5428 36.4798 31.6278 37.1998 31.4158 37.1998C31.2038 37.1998 30.8368 37.5598 30.6018 37.9998C30.3668 38.4398 30.0208 38.7998 29.8348 38.7998C29.3398 38.7998 21.8018 46.2928 21.8018 46.7848C21.8018 47.0128 21.6218 47.1998 21.4018 47.1998C21.1818 47.1998 21.0018 47.3798 21.0018 47.5998C21.0018 47.8188 20.2818 48.7408 19.4018 49.6478C18.5218 50.5548 17.8018 51.5048 17.8018 51.7598C17.8018 52.0148 17.4418 52.4828 17.0018 52.7998C16.5618 53.1168 16.2018 53.5728 16.2018 53.8128C16.2018 54.0528 15.8868 54.5978 15.5018 55.0248C15.1168 55.4508 14.5468 56.2948 14.2338 56.8998C13.9218 57.5048 13.5168 57.9998 13.3338 57.9998C13.1518 57.9998 13.0018 58.3318 13.0018 58.7378C13.0018 59.1438 12.6418 59.8018 12.2018 60.1998C11.7618 60.5978 11.3978 61.2108 11.3928 61.5618C11.3878 61.9128 11.0318 62.6498 10.6018 63.1998C10.1718 63.7498 9.81578 64.3848 9.81078 64.6108C9.80578 64.8368 9.26178 66.0628 8.60178 67.3348C7.94178 68.6068 7.40178 69.9068 7.40178 70.2238C7.40178 70.5408 7.22178 70.7998 7.00178 70.7998C6.78178 70.7998 6.60178 71.1488 6.60178 71.5758C6.60178 72.0028 6.42178 72.4638 6.20178 72.5998C5.98178 72.7358 5.80178 73.3658 5.80178 73.9998C5.80178 74.6338 5.62178 75.2638 5.40178 75.3998C5.18178 75.5358 5.00178 75.9968 5.00178 76.4238C5.00178 76.8508 4.82178 77.1998 4.60178 77.1998C4.38178 77.1998 4.20177 77.7288 4.20177 78.3758C4.20177 79.0228 4.02178 79.6638 3.80178 79.7998C3.58178 79.9358 3.40178 80.7458 3.40178 81.5998C3.40178 82.4538 3.22178 83.2638 3.00178 83.3998C2.78178 83.5358 2.60178 84.3568 2.60178 85.2238C2.60178 86.0908 2.42177 86.7998 2.20177 86.7998C1.98177 86.7998 1.80178 87.6888 1.80178 88.7758C1.80178 89.8628 1.62178 90.8638 1.40178 90.9998C1.18178 91.1358 1.00178 92.5758 1.00178 94.1998C1.00178 95.8238 0.816774 97.2668 0.591774 97.4058C0.0577743 97.7358 0.089779 120.684 0.624779 121.014C0.831779 121.142 1.00178 122.677 1.00178 124.424C1.00178 126.275 1.16878 127.6 1.40178 127.6C1.62678 127.6 1.80178 128.725 1.80178 130.176C1.80178 131.593 1.98177 132.864 2.20177 133C2.42177 133.136 2.60178 134.137 2.60178 135.224C2.60178 136.311 2.78178 137.2 3.00178 137.2C3.22178 137.2 3.40178 137.909 3.40178 138.776C3.40178 139.643 3.58178 140.464 3.80178 140.6C4.02178 140.736 4.20177 141.632 4.20177 142.59C4.20177 143.549 4.39078 144.396 4.62078 144.473C4.88478 144.561 5.05978 146.798 5.09378 150.506C5.12278 153.748 5.29378 156.4 5.47478 156.4C5.65478 156.4 5.80178 158.819 5.80178 161.776C5.80178 164.929 5.96678 167.255 6.20178 167.4C6.42178 167.536 6.60178 168.882 6.60178 170.39C6.60178 171.899 6.76678 173.193 6.96878 173.267C7.17078 173.34 7.38078 174.3 7.43578 175.4C7.49078 176.5 7.67778 177.589 7.85078 177.819C8.02378 178.05 8.21078 178.905 8.26578 179.719C8.32078 180.534 8.50878 181.2 8.68378 181.2C8.85878 181.2 9.00178 181.92 9.00178 182.8C9.00178 183.68 9.18178 184.4 9.40178 184.4C9.62178 184.4 9.80178 185.019 9.80178 185.776C9.80178 186.533 9.98177 187.264 10.2018 187.4C10.4218 187.536 10.6018 188.177 10.6018 188.824C10.6018 189.471 10.7818 190 11.0018 190C11.2218 190 11.4018 190.54 11.4018 191.2C11.4018 191.86 11.5818 192.4 11.8018 192.4C12.0218 192.4 12.2018 192.85 12.2018 193.4C12.2018 193.95 12.3818 194.4 12.6018 194.4C12.8218 194.4 13.0018 194.929 13.0018 195.576C13.0018 196.223 13.1818 196.864 13.4018 197C13.6218 197.136 13.8018 197.597 13.8018 198.024C13.8018 198.451 13.9818 198.8 14.2018 198.8C14.4218 198.8 14.6058 199.205 14.6108 199.7C14.6158 200.195 14.9718 201.05 15.4018 201.6C15.8318 202.15 16.1878 203.005 16.1928 203.5C16.1978 203.995 16.3818 204.4 16.6018 204.4C16.8218 204.4 17.0018 204.76 17.0018 205.2C17.0018 205.64 17.1368 206.001 17.3018 206.003C17.6608 206.007 18.6018 207.944 18.6018 208.68C18.6018 208.966 18.7818 209.2 19.0018 209.2C19.2218 209.2 19.4018 209.56 19.4018 210C19.4018 210.44 19.5818 210.8 19.8018 210.8C20.0218 210.8 20.2018 211.094 20.2018 211.453C20.2018 211.812 20.5168 212.399 20.9018 212.757C21.7888 213.582 22.6018 215.019 22.6018 215.761C22.6018 216.076 22.7488 216.393 22.9298 216.467C23.3268 216.628 26.5948 221.424 26.6178 221.878C26.6268 222.055 27.1668 222.823 27.8178 223.585C28.4688 224.347 29.0018 225.129 29.0018 225.324C29.0018 225.519 29.5418 226.183 30.2018 226.8C30.8618 227.417 31.4018 228.097 31.4018 228.312C31.4018 228.527 32.1218 229.445 33.0018 230.352C33.8818 231.259 34.6018 232.169 34.6018 232.375C34.6018 232.894 46.9668 245.2 47.4868 245.2C47.7188 245.2 48.1988 245.517 48.5548 245.904C48.9108 246.292 49.8318 247.079 50.6018 247.653C51.3718 248.228 52.7118 249.351 53.5798 250.149C54.4478 250.947 55.3918 251.6 55.6768 251.6C55.9618 251.6 56.4198 251.96 56.6948 252.4C56.9698 252.84 57.4708 253.2 57.8098 253.2C58.1478 253.2 58.6848 253.56 59.0018 254C59.3188 254.44 59.8588 254.8 60.2018 254.8C60.5448 254.8 61.0848 255.16 61.4018 255.6C61.7188 256.04 62.2988 256.4 62.6898 256.4C63.0818 256.4 63.4018 256.58 63.4018 256.8C63.4018 257.02 63.6378 257.2 63.9268 257.2C64.2148 257.2 64.8378 257.56 65.3098 258C65.7818 258.44 66.4458 258.8 66.7848 258.8C67.1238 258.8 67.4018 258.952 67.4018 259.137C67.4018 259.323 68.2568 259.884 69.3018 260.384C71.9168 261.637 74.0218 262.704 76.5428 264.054C77.7198 264.684 79.0248 265.2 79.4428 265.2C79.8598 265.2 80.2018 265.38 80.2018 265.6C80.2018 265.82 80.5508 266 80.9778 266C81.4048 266 81.8658 266.18 82.0018 266.4C82.1378 266.62 82.7678 266.8 83.4018 266.8C84.0358 266.8 84.6658 266.98 84.8018 267.2C84.9378 267.42 85.3988 267.6 85.8258 267.6C86.2528 267.6 86.6018 267.78 86.6018 268C86.6018 268.22 87.1418 268.4 87.8018 268.4C88.4618 268.4 89.0018 268.58 89.0018 268.8C89.0018 269.02 89.5418 269.2 90.2018 269.2C90.8618 269.2 91.4018 269.38 91.4018 269.6C91.4018 269.82 91.9308 270 92.5778 270C93.2248 270 93.8658 270.18 94.0018 270.4C94.1378 270.62 94.8688 270.8 95.6258 270.8C96.3828 270.8 97.0018 270.98 97.0018 271.2C97.0018 271.42 97.8008 271.6 98.7778 271.6C99.7548 271.6 100.666 271.78 100.802 272C100.938 272.22 101.759 272.4 102.626 272.4C103.493 272.4 104.202 272.58 104.202 272.8C104.202 273.026 105.335 273.2 106.802 273.2C108.269 273.2 109.402 273.374 109.402 273.6C109.402 273.833 110.727 274 112.578 274C114.325 274 115.869 274.185 116.009 274.411C116.323 274.92 139.38 274.916 139.993 274.408C140.222 274.218 141.668 274.023 143.206 273.974C144.744 273.926 146.188 273.743 146.414 273.567C146.641 273.391 147.776 273.204 148.936 273.151C150.095 273.098 151.135 272.908 151.247 272.728C151.358 272.547 152.159 272.4 153.026 272.4C153.893 272.4 154.602 272.22 154.602 272C154.602 271.78 155.401 271.6 156.378 271.6C157.355 271.6 158.266 271.42 158.402 271.2C158.538 270.98 159.179 270.8 159.826 270.8C160.473 270.8 161.002 270.62 161.002 270.4C161.002 270.18 161.621 270 162.378 270C163.135 270 163.866 269.82 164.002 269.6C164.138 269.38 164.779 269.2 165.426 269.2C166.073 269.2 166.602 269.02 166.602 268.8C166.602 268.58 167.142 268.4 167.802 268.4C168.462 268.4 169.002 268.22 169.002 268C169.002 267.78 169.542 267.6 170.202 267.6C170.862 267.6 171.402 267.42 171.402 267.2C171.402 266.98 171.762 266.8 172.202 266.8C172.642 266.8 173.002 266.62 173.002 266.4C173.002 266.18 173.542 266 174.202 266C174.862 266 175.402 265.82 175.402 265.6C175.402 265.38 175.762 265.2 176.202 265.2C176.642 265.2 177.002 265.02 177.002 264.8C177.002 264.58 177.362 264.4 177.802 264.4C178.242 264.4 178.603 264.265 178.605 264.1C178.609 263.741 180.546 262.8 181.282 262.8C181.568 262.8 181.802 262.62 181.802 262.4C181.802 262.18 182.162 262 182.602 262C183.042 262 183.402 261.82 183.402 261.6C183.402 261.38 183.762 261.2 184.202 261.2C184.642 261.2 185.002 261.02 185.002 260.8C185.002 260.58 185.362 260.4 185.802 260.4C186.242 260.4 186.602 260.22 186.602 260C186.602 259.78 186.962 259.6 187.402 259.6C187.842 259.6 188.202 259.42 188.202 259.2C188.202 258.98 188.444 258.8 188.74 258.8C189.036 258.8 189.604 258.44 190.002 258C190.4 257.56 191.018 257.2 191.376 257.2C191.733 257.2 192.285 256.84 192.602 256.4C192.919 255.96 193.499 255.6 193.89 255.6C194.282 255.6 194.602 255.45 194.602 255.268C194.602 255.085 195.094 254.68 195.695 254.368C196.296 254.055 197.297 253.321 197.918 252.735C198.54 252.149 199.65 251.384 200.385 251.035C201.12 250.686 202.351 249.771 203.122 249C203.892 248.23 204.692 247.6 204.9 247.6C205.108 247.6 206.284 246.655 207.515 245.5C208.745 244.345 210.831 242.5 212.15 241.4C213.468 240.3 214.564 239.22 214.584 239C214.603 238.78 215.516 237.814 216.611 236.854C217.706 235.893 218.602 234.938 218.602 234.731C218.602 234.525 219.682 233.252 221.002 231.903C222.322 230.554 223.402 229.214 223.402 228.925C223.402 228.636 223.537 228.399 223.702 228.397C223.867 228.396 224.452 227.724 225.002 226.904C225.552 226.084 226.497 224.889 227.102 224.247C227.707 223.606 228.202 222.838 228.202 222.541C228.202 222.243 228.352 222 228.534 222C228.717 222 229.122 221.505 229.434 220.9C229.747 220.295 230.317 219.451 230.702 219.025C231.087 218.598 231.402 218.013 231.402 217.725C231.402 217.436 231.582 217.2 231.802 217.2C232.022 217.2 232.202 216.84 232.202 216.4C232.202 215.96 232.382 215.6 232.602 215.6C232.822 215.6 233.002 215.364 233.002 215.075C233.002 214.787 233.362 214.164 233.802 213.692C234.242 213.22 234.602 212.556 234.602 212.217C234.602 211.878 234.756 211.6 234.944 211.6C235.132 211.6 236.051 210.025 236.985 208.1C237.919 206.175 238.845 204.287 239.043 203.905C239.24 203.523 239.402 202.938 239.402 202.605C239.402 202.272 239.582 202 239.802 202C240.022 202 240.202 201.64 240.202 201.2C240.202 200.76 240.382 200.4 240.602 200.4C240.822 200.4 241.002 199.986 241.002 199.48C241.002 198.426 241.855 196.408 242.302 196.403C242.467 196.401 242.602 195.86 242.602 195.2C242.602 194.54 242.782 194 243.002 194C243.222 194 243.402 193.471 243.402 192.824C243.402 192.177 243.582 191.536 243.802 191.4C244.022 191.264 244.202 190.724 244.202 190.2C244.202 189.676 244.382 189.136 244.602 189C244.822 188.864 245.002 188.223 245.002 187.576C245.002 186.929 245.182 186.4 245.402 186.4C245.622 186.4 245.802 185.77 245.802 185C245.802 184.23 245.982 183.6 246.202 183.6C246.422 183.6 246.602 182.88 246.602 182C246.602 181.12 246.782 180.4 247.002 180.4C247.222 180.4 247.402 179.691 247.402 178.824C247.402 177.957 247.549 177.156 247.73 177.045C247.91 176.933 248.1 175.888 248.152 174.721C248.204 173.555 248.416 172.54 248.624 172.467C248.832 172.393 249.002 171.099 249.002 169.59C249.002 168.082 249.182 166.736 249.402 166.6C249.655 166.443 249.802 161.604 249.802 153.4C249.802 145.196 249.655 140.357 249.402 140.2C249.182 140.064 249.002 138.534 249.002 136.8C249.002 135.066 248.822 133.536 248.602 133.4C248.382 133.264 248.202 132.184 248.202 131C248.202 129.816 248.022 128.736 247.802 128.6C247.582 128.464 247.402 127.564 247.402 126.6C247.402 125.636 247.222 124.736 247.002 124.6C246.782 124.464 246.602 123.821 246.602 123.171C246.602 122.521 246.444 121.677 246.251 121.295C245.667 120.139 245.002 117.796 245.002 116.895C245.002 116.429 244.822 115.936 244.602 115.8C244.382 115.664 244.202 115.023 244.202 114.376C244.202 113.729 244.022 113.2 243.802 113.2C243.582 113.2 243.402 112.838 243.402 112.395C243.402 111.952 243.194 111.187 242.94 110.695C241.944 108.769 241.802 108.383 241.802 107.605C241.802 107.162 241.667 106.799 241.502 106.797C241.101 106.793 240.202 104.819 240.202 103.944C240.202 103.561 240.022 103.136 239.802 103C239.582 102.864 239.402 102.403 239.402 101.976C239.402 101.282 239.107 101.2 236.602 101.2H233.802V102.576C233.802 103.333 233.982 104.064 234.202 104.2C234.422 104.336 234.602 104.797 234.602 105.224C234.602 105.651 234.782 106 235.002 106C235.222 106 235.402 106.36 235.402 106.8C235.402 107.24 235.582 107.6 235.802 107.6C236.022 107.6 236.202 108.039 236.202 108.576C236.202 109.113 236.382 109.664 236.602 109.8C236.822 109.936 237.002 110.476 237.002 111C237.002 111.524 237.182 112.064 237.402 112.2C237.622 112.336 237.802 112.797 237.802 113.224C237.802 113.651 237.982 114 238.202 114C238.422 114 238.602 114.529 238.602 115.176C238.602 115.823 238.782 116.464 239.002 116.6C239.222 116.736 239.402 117.366 239.402 118C239.402 118.634 239.582 119.264 239.802 119.4C240.022 119.536 240.202 120.177 240.202 120.824C240.202 121.471 240.382 122 240.602 122C240.822 122 241.002 122.72 241.002 123.6C241.002 124.48 241.182 125.2 241.402 125.2C241.622 125.2 241.802 125.999 241.802 126.976C241.802 127.953 241.982 128.864 242.202 129C242.422 129.136 242.602 130.122 242.602 131.19C242.602 132.259 242.769 133.193 242.974 133.267C243.178 133.34 243.384 134.66 243.43 136.2C243.477 137.74 243.661 139.188 243.839 139.418C244.018 139.647 244.192 142.034 244.227 144.721C244.261 147.408 244.45 149.706 244.646 149.827C245.109 150.113 245.112 157.885 244.649 158.171C244.455 158.291 244.267 160.228 244.232 162.475C244.196 164.721 244.022 166.749 243.844 166.98C243.666 167.211 243.481 168.57 243.433 170C243.385 171.43 243.178 172.771 242.974 172.98C242.769 173.189 242.602 174.033 242.602 174.856C242.602 175.679 242.422 176.464 242.202 176.6C241.982 176.736 241.802 177.546 241.802 178.4C241.802 179.254 241.622 180.064 241.402 180.2C241.182 180.336 241.002 180.966 241.002 181.6C241.002 182.234 240.822 182.864 240.602 183C240.382 183.136 240.202 183.867 240.202 184.624C240.202 185.381 240.022 186 239.802 186C239.582 186 239.402 186.54 239.402 187.2C239.402 187.86 239.222 188.4 239.002 188.4C238.782 188.4 238.602 188.94 238.602 189.6C238.602 190.26 238.422 190.8 238.202 190.8C237.982 190.8 237.802 191.34 237.802 192C237.802 192.66 237.622 193.2 237.402 193.2C237.182 193.2 237.002 193.562 237.002 194.005C237.002 194.448 236.834 195.123 236.628 195.505C236.423 195.887 236.019 196.785 235.731 197.5C235.442 198.215 235.071 198.8 234.904 198.8C234.738 198.8 234.602 199.072 234.602 199.405C234.602 199.738 234.445 200.323 234.252 200.705C234.06 201.087 233.547 202.12 233.114 203C232.68 203.88 231.937 205.28 231.464 206.112C230.99 206.944 230.602 207.889 230.602 208.212C230.602 208.535 230.422 208.8 230.202 208.8C229.982 208.8 229.802 209.07 229.802 209.4C229.802 209.73 229.622 210 229.402 210C229.182 210 229.002 210.36 229.002 210.8C229.002 211.24 228.822 211.6 228.602 211.6C228.382 211.6 228.202 211.92 228.202 212.312C228.202 212.703 227.842 213.283 227.402 213.6C226.962 213.917 226.602 214.497 226.602 214.888C226.602 215.28 226.443 215.6 226.248 215.6C226.053 215.6 225.606 216.205 225.255 216.945C224.904 217.685 224.343 218.517 224.009 218.794C223.675 219.071 223.402 219.458 223.402 219.653C223.402 219.848 222.862 220.572 222.202 221.263C221.542 221.954 221.002 222.696 221.002 222.912C221.002 223.129 220.678 223.597 220.283 223.953C219.888 224.309 219.137 225.23 218.614 226C218.092 226.77 216.796 228.256 215.733 229.301C214.671 230.347 213.802 231.29 213.802 231.396C213.802 231.615 206.56 238.8 206.34 238.8C206.262 238.8 205.317 239.7 204.24 240.8C203.163 241.9 202.127 242.8 201.938 242.8C201.749 242.8 200.644 243.683 199.483 244.762C198.321 245.841 196.773 247.007 196.042 247.354C195.31 247.701 194.485 248.259 194.208 248.593C193.931 248.927 193.501 249.2 193.253 249.201C193.005 249.201 192.172 249.741 191.402 250.4C190.632 251.059 189.777 251.599 189.502 251.599C189.227 251.6 189.002 251.78 189.002 252C189.002 252.22 188.766 252.4 188.477 252.4C188.189 252.4 187.595 252.715 187.157 253.1C186.032 254.089 184.716 254.8 184.007 254.8C183.674 254.8 183.402 254.98 183.402 255.2C183.402 255.42 183.057 255.6 182.635 255.6C182.214 255.6 181.809 255.735 181.735 255.9C181.543 256.332 178.23 258 177.564 258C177.255 258 177.002 258.18 177.002 258.4C177.002 258.62 176.642 258.8 176.202 258.8C175.762 258.8 175.401 258.935 175.399 259.1C175.395 259.501 173.421 260.4 172.546 260.4C172.163 260.4 171.738 260.58 171.602 260.8C171.466 261.02 171.005 261.2 170.578 261.2C170.151 261.2 169.802 261.38 169.802 261.6C169.802 261.82 169.363 262 168.826 262C168.289 262 167.738 262.18 167.602 262.4C167.466 262.62 166.926 262.8 166.402 262.8C165.878 262.8 165.338 262.98 165.202 263.2C165.066 263.42 164.526 263.6 164.002 263.6C163.478 263.6 162.938 263.78 162.802 264C162.666 264.22 162.126 264.4 161.602 264.4C161.078 264.4 160.538 264.58 160.402 264.8C160.266 265.02 159.726 265.2 159.202 265.2C158.678 265.2 158.138 265.38 158.002 265.6C157.866 265.82 157.146 266 156.402 266C155.658 266 154.938 266.18 154.802 266.4C154.666 266.62 154.036 266.8 153.402 266.8C152.768 266.8 152.138 266.98 152.002 267.2C151.866 267.42 150.696 267.6 149.402 267.6C148.108 267.6 146.938 267.78 146.802 268C146.666 268.22 145.431 268.4 144.058 268.4C142.685 268.4 141.391 268.57 141.182 268.778C140.888 269.071 134.225 269.365 131.104 269.223C130.711 269.205 130.585 261.202 130.504 231.3L130.402 193.4L127.702 193.282L125.002 193.163L125.003 231.282V269.4L119.303 269.273C116.167 269.203 113.431 268.978 113.222 268.773C113.013 268.568 111.809 268.4 110.546 268.4C109.283 268.4 108.138 268.22 108.002 268C107.866 267.78 106.955 267.6 105.978 267.6C105.001 267.6 104.202 267.42 104.202 267.2C104.202 266.98 103.493 266.8 102.626 266.8C101.759 266.8 100.938 266.62 100.802 266.4C100.666 266.18 99.9458 266 99.2018 266C98.4578 266 97.7378 265.82 97.6018 265.6C97.4658 265.38 96.7348 265.2 95.9778 265.2C95.2208 265.2 94.6018 265.02 94.6018 264.8C94.6018 264.58 93.9828 264.4 93.2258 264.4C92.4688 264.4 91.7378 264.22 91.6018 264C91.4658 263.78 91.0048 263.6 90.5778 263.6C90.1508 263.6 89.8018 263.42 89.8018 263.2C89.8018 262.98 89.3568 262.8 88.8138 262.8C88.2708 262.8 87.1848 262.44 86.4018 262C85.6188 261.56 84.6228 261.2 84.1898 261.2C83.7568 261.2 83.4018 261.02 83.4018 260.8C83.4018 260.58 82.9688 260.4 82.4398 260.4C81.4718 260.4 78.1168 258.859 77.8688 258.3C77.7948 258.135 77.3898 258 76.9688 258C76.5468 258 76.2018 257.82 76.2018 257.6C76.2018 257.38 75.8418 257.2 75.4018 257.2C74.9618 257.2 74.6018 257.02 74.6018 256.8C74.6018 256.58 74.2698 256.4 73.8638 256.4C73.4578 256.4 72.7998 256.04 72.4018 255.6C72.0038 255.16 71.3798 254.8 71.0148 254.8C70.6508 254.8 69.9658 254.44 69.4938 254C69.0218 253.56 68.4398 253.2 68.2018 253.2C67.9638 253.2 67.3818 252.84 66.9098 252.4C66.4378 251.96 65.8148 251.6 65.5268 251.6C65.2378 251.6 65.0018 251.42 65.0018 251.2C65.0018 250.98 64.6818 250.8 64.2898 250.8C63.8988 250.8 63.3188 250.44 63.0018 250C62.6848 249.56 62.1848 249.2 61.8918 249.2C61.5988 249.2 60.7828 248.661 60.0798 248.002C59.3768 247.343 58.6568 246.803 58.4798 246.802C58.3028 246.801 57.5828 246.261 56.8798 245.602C56.1768 244.943 55.4488 244.403 55.2618 244.402C55.0758 244.401 54.4188 243.86 53.8018 243.2C53.1848 242.54 52.5168 242 52.3168 242C52.1158 242 51.5528 241.46 51.0648 240.8C50.5768 240.14 50.0008 239.6 49.7838 239.6C49.3158 239.6 41.0038 231.389 40.9978 230.922C40.9958 230.745 39.7358 229.27 38.1978 227.646C36.6598 226.021 35.4018 224.485 35.4018 224.234C35.4018 223.982 35.0418 223.517 34.6018 223.2C34.1618 222.883 33.8018 222.42 33.8018 222.171C33.8018 221.922 33.2618 221.154 32.6018 220.463C31.9418 219.772 31.4018 218.975 31.4018 218.692C31.4018 218.409 31.0418 217.917 30.6018 217.6C30.1618 217.283 29.8018 216.786 29.8018 216.495C29.8018 216.204 29.4418 215.58 29.0018 215.108C28.5618 214.636 28.2018 214.013 28.2018 213.725C28.2018 213.436 28.0218 213.2 27.8018 213.2C27.5818 213.2 27.4018 212.964 27.4018 212.675C27.4018 212.387 27.0418 211.764 26.6018 211.292C26.1618 210.82 25.8018 210.156 25.8018 209.817C25.8018 209.478 25.6218 209.2 25.4018 209.2C25.1818 209.2 25.0018 208.84 25.0018 208.4C25.0018 207.96 24.8218 207.6 24.6018 207.6C24.3818 207.6 24.2018 207.24 24.2018 206.8C24.2018 206.36 24.0218 206 23.8018 206C23.5818 206 23.4018 205.64 23.4018 205.2C23.4018 204.76 23.2218 204.4 23.0018 204.4C22.7818 204.4 22.6018 204.04 22.6018 203.6C22.6018 203.16 22.4218 202.8 22.2018 202.8C21.9818 202.8 21.8018 202.44 21.8018 202C21.8018 201.56 21.6218 201.2 21.4018 201.2C21.1818 201.2 21.0018 200.84 21.0018 200.4C21.0018 199.96 20.8218 199.6 20.6018 199.6C20.3818 199.6 20.2018 199.161 20.2018 198.624C20.2018 198.087 20.0218 197.536 19.8018 197.4C19.5818 197.264 19.4018 196.803 19.4018 196.376C19.4018 195.949 19.2218 195.6 19.0018 195.6C18.7818 195.6 18.6018 195.238 18.6018 194.795C18.6018 194.352 18.4218 193.632 18.2018 193.195C17.9818 192.758 17.6218 192.042 17.4018 191.605C17.1818 191.168 17.0018 190.459 17.0018 190.029C17.0018 189.599 16.8218 189.136 16.6018 189C16.3818 188.864 16.2018 188.234 16.2018 187.6C16.2018 186.966 16.0218 186.336 15.8018 186.2C15.5818 186.064 15.4018 185.423 15.4018 184.776C15.4018 184.129 15.2218 183.6 15.0018 183.6C14.7818 183.6 14.6018 182.981 14.6018 182.224C14.6018 181.467 14.4218 180.736 14.2018 180.6C13.9818 180.464 13.8018 179.643 13.8018 178.776C13.8018 177.909 13.6218 177.2 13.4018 177.2C13.1818 177.2 13.0018 176.3 13.0018 175.2C13.0018 174.1 12.8218 173.2 12.6018 173.2C12.3818 173.2 12.2018 172.221 12.2018 171.024C12.2018 169.827 12.0218 168.736 11.8018 168.6C11.5768 168.461 11.4018 166.537 11.4018 164.2C11.4018 161.863 11.2268 159.939 11.0018 159.8C10.7688 159.656 10.6018 157.396 10.6018 154.376V149.2H14.3778C16.4648 149.2 18.2648 149.021 18.4018 148.8C18.5378 148.58 19.6178 148.4 20.8018 148.4C21.9858 148.4 23.0658 148.22 23.2018 148C23.3378 147.78 24.0578 147.6 24.8018 147.6C25.5458 147.6 26.2658 147.42 26.4018 147.2C26.5378 146.98 27.1788 146.8 27.8258 146.8C28.4728 146.8 29.0018 146.62 29.0018 146.4C29.0018 146.18 29.5418 146 30.2018 146C30.8618 146 31.4018 145.82 31.4018 145.6C31.4018 145.38 31.9418 145.2 32.6018 145.2C33.2618 145.2 33.8018 145.02 33.8018 144.8C33.8018 144.58 34.1638 144.4 34.6068 144.4C35.3248 144.4 36.8618 143.74 37.4018 143.2C37.9418 142.66 39.4788 142 40.1968 142C40.6398 142 41.0018 141.82 41.0018 141.6C41.0018 141.38 41.2798 141.2 41.6188 141.2C41.9578 141.2 42.6218 140.84 43.0938 140.4C43.5658 139.96 44.2338 139.6 44.5768 139.599C44.9208 139.599 45.8318 139.059 46.6018 138.4C47.3718 137.741 48.2268 137.201 48.5018 137.201C48.7768 137.2 49.0018 137.02 49.0018 136.8C49.0018 136.58 49.2448 136.4 49.5428 136.4C49.8398 136.4 50.6478 135.86 51.3388 135.2C52.0298 134.54 52.8268 134 53.1098 134C53.3928 134 53.8848 133.64 54.2018 133.2C54.5188 132.76 55.0068 132.4 55.2868 132.4C55.5658 132.4 56.0198 132.04 56.2948 131.6C56.5698 131.16 56.9808 130.8 57.2098 130.8C57.4378 130.8 57.8848 130.44 58.2018 130C58.5188 129.56 59.0028 129.2 59.2758 129.2C59.5498 129.2 59.9668 128.84 60.2018 128.4C60.4368 127.96 60.8028 127.6 61.0148 127.6C61.4018 127.6 72.2018 116.936 72.2018 116.554C72.2018 116.355 73.0318 115.416 75.7018 112.599C76.4168 111.844 77.0018 111.047 77.0018 110.827C77.0018 110.608 77.3618 110.235 77.8018 110C78.2418 109.765 78.6018 109.348 78.6018 109.074C78.6018 108.801 78.9618 108.317 79.4018 108C79.8418 107.683 80.2018 107.227 80.2018 106.987C80.2018 106.747 80.5218 106.202 80.9128 105.775C81.3038 105.349 82.0598 104.37 82.5938 103.6C83.1268 102.83 83.8878 101.909 84.2828 101.553C84.6778 101.197 85.0018 100.74 85.0018 100.538C85.0018 100.335 85.5348 99.5468 86.1858 98.7848C86.8368 98.0228 87.3768 97.1748 87.3858 96.8998C87.3948 96.6248 87.5538 96.3998 87.7388 96.3998C87.9248 96.3998 88.4888 95.5978 88.9928 94.6178C89.4968 93.6368 90.2448 92.4748 90.6558 92.0338C91.0658 91.5938 91.4018 90.9558 91.4018 90.6168C91.4018 90.2778 91.5608 89.9998 91.7548 89.9998C91.9498 89.9998 92.2088 89.6848 92.3308 89.2998C92.6188 88.3908 93.8138 86.4468 94.7018 85.4418C95.0868 85.0058 95.4018 84.4128 95.4018 84.1248C95.4018 83.8358 95.5818 83.5998 95.8018 83.5998C96.0218 83.5998 96.2018 83.3218 96.2018 82.9828C96.2018 82.6438 96.5618 81.9798 97.0018 81.5078C97.4418 81.0358 97.8018 80.4128 97.8018 80.1248C97.8018 79.8358 97.9818 79.5998 98.2018 79.5998C98.4218 79.5998 98.6018 79.3218 98.6018 78.9828C98.6018 78.6438 98.9618 77.9798 99.4018 77.5078C99.8418 77.0358 100.202 76.4128 100.202 76.1248C100.202 75.8358 100.382 75.5998 100.602 75.5998C100.822 75.5998 101.002 75.2398 101.002 74.7998C101.002 74.3598 101.182 73.9998 101.402 73.9998C101.622 73.9998 101.802 73.7218 101.802 73.3828C101.802 73.0438 102.162 72.3798 102.602 71.9078C103.042 71.4358 103.402 70.7568 103.402 70.3998C103.402 70.0428 103.762 69.3638 104.202 68.8918C104.642 68.4198 105.002 67.7558 105.002 67.4168C105.002 67.0778 105.182 66.7998 105.402 66.7998C105.622 66.7998 105.802 66.4548 105.802 66.0328C105.802 65.6118 105.937 65.2068 106.102 65.1328C106.601 64.9118 110.492 57.4598 111.811 54.1998C111.989 53.7598 112.374 52.8148 112.666 52.0998C112.958 51.3848 113.333 50.7998 113.5 50.7998C113.666 50.7998 113.802 50.4398 113.802 49.9998C113.802 49.5598 113.982 49.1998 114.202 49.1998C114.422 49.1998 114.602 48.9348 114.602 48.6118C114.602 48.2888 114.962 47.3828 115.402 46.5998C115.842 45.8168 116.202 44.8208 116.202 44.3878C116.202 43.9548 116.382 43.5998 116.602 43.5998C116.822 43.5998 117.002 43.2508 117.002 42.8238C117.002 42.3968 117.182 41.9358 117.402 41.7998C117.622 41.6638 117.802 41.1128 117.802 40.5758C117.802 40.0388 117.982 39.5998 118.202 39.5998C118.422 39.5998 118.602 39.0598 118.602 38.3998C118.602 37.7398 118.782 37.1998 119.002 37.1998C119.222 37.1998 119.402 36.6598 119.402 35.9998C119.402 35.3398 119.582 34.7998 119.802 34.7998C120.022 34.7998 120.202 34.2598 120.202 33.5998C120.202 32.9398 120.382 32.3998 120.602 32.3998C120.822 32.3998 121.002 31.8708 121.002 31.2238C121.002 30.5768 121.182 29.9358 121.402 29.7998C121.622 29.6638 121.802 28.9328 121.802 28.1758C121.802 27.4188 121.982 26.7998 122.202 26.7998C122.422 26.7998 122.602 26.0008 122.602 25.0238C122.602 24.0468 122.782 23.1358 123.002 22.9998C123.222 22.8638 123.402 21.9638 123.402 20.9998C123.402 20.0358 123.582 19.1358 123.802 18.9998C124.544 18.5408 124.313 6.45279 123.547 5.68779C122.793 4.93379 122.988 4.95178 117.208 5.10878ZM118.526 15.0588C118.192 20.3068 117.837 22.7308 117.36 23.0258C117.163 23.1478 117.002 23.8558 117.002 24.5998C117.002 25.3438 116.822 26.0638 116.602 26.1998C116.382 26.3358 116.202 27.0668 116.202 27.8238C116.202 28.5808 116.022 29.1998 115.802 29.1998C115.582 29.1998 115.402 29.7398 115.402 30.3998C115.402 31.0598 115.222 31.5998 115.002 31.5998C114.782 31.5998 114.602 32.1398 114.602 32.7998C114.602 33.4598 114.422 33.9998 114.202 33.9998C113.982 33.9998 113.802 34.5398 113.802 35.1998C113.802 35.8598 113.622 36.3998 113.402 36.3998C113.182 36.3998 113.002 36.7488 113.002 37.1758C113.002 37.6028 112.822 38.0638 112.602 38.1998C112.382 38.3358 112.202 38.8868 112.202 39.4238C112.202 39.9608 112.022 40.3998 111.802 40.3998C111.582 40.3998 111.402 40.8138 111.402 41.3198C111.402 42.3738 110.549 44.3918 110.102 44.3968C109.937 44.3988 109.798 44.8048 109.793 45.2998C109.788 45.7948 109.432 46.6498 109.002 47.1998C108.572 47.7498 108.216 48.4788 108.211 48.8198C108.199 49.6448 107.281 51.5928 106.902 51.5968C106.737 51.5988 106.603 51.8248 106.605 52.0998C106.609 52.7328 103.314 59.3538 102.906 59.5328C102.739 59.6068 102.602 60.0118 102.602 60.4328C102.602 60.8548 102.422 61.1998 102.202 61.1998C101.982 61.1998 101.802 61.4718 101.802 61.8048C101.802 62.4788 101.08 63.8678 100.278 64.7368C99.9898 65.0488 99.4518 66.0008 99.0838 66.8528C98.7148 67.7038 98.2758 68.3998 98.1078 68.3998C97.9398 68.3998 97.8018 68.7318 97.8018 69.1378C97.8018 69.5438 97.4418 70.2018 97.0018 70.5998C96.5618 70.9978 96.2018 71.5658 96.2018 71.8618C96.2018 72.1578 96.0218 72.3998 95.8018 72.3998C95.5818 72.3998 95.4018 72.7598 95.4018 73.1998C95.4018 73.6398 95.2218 73.9998 95.0018 73.9998C94.7818 73.9998 94.6018 74.3198 94.6018 74.7118C94.6018 75.1028 94.2418 75.6828 93.8018 75.9998C93.3618 76.3168 93.0018 76.7708 93.0018 77.0088C93.0018 77.6748 92.0388 79.5928 91.7018 79.5968C91.5368 79.5988 91.4018 79.7928 91.4018 80.0278C91.4018 80.5348 88.9928 84.1408 88.5248 84.3328C88.3468 84.4068 88.2018 84.7838 88.2018 85.1708C88.2018 85.5588 87.8418 86.2018 87.4018 86.5998C86.9618 86.9978 86.6018 87.5658 86.6018 87.8618C86.6018 88.1578 86.4218 88.3998 86.2018 88.3998C85.9818 88.3998 85.8018 88.7198 85.8018 89.1118C85.8018 89.5028 85.4418 90.0828 85.0018 90.3998C84.5618 90.7168 84.2018 91.2568 84.2018 91.5998C84.2018 91.9428 83.8418 92.4828 83.4018 92.7998C82.9618 93.1168 82.6018 93.6308 82.6018 93.9408C82.6018 94.2518 82.2858 94.7968 81.8988 95.1528C81.5128 95.5088 80.9418 96.2948 80.6318 96.8998C80.3208 97.5048 79.9168 97.9998 79.7338 97.9998C79.5518 97.9998 79.4018 98.2378 79.4018 98.5288C79.4018 98.8198 78.5018 100.022 77.4018 101.2C76.3018 102.378 75.4018 103.504 75.4018 103.702C75.4018 103.901 74.6818 104.797 73.8018 105.695C72.9218 106.593 72.2018 107.496 72.2018 107.703C72.2018 107.91 71.6618 108.583 71.0018 109.2C70.3418 109.817 69.8018 110.44 69.8018 110.586C69.8018 111.09 60.7978 120.4 60.3098 120.4C60.1328 120.4 58.5078 121.84 56.6998 123.6C54.8918 125.36 53.2758 126.801 53.1078 126.802C52.9398 126.803 52.2268 127.343 51.5238 128.002C50.8208 128.661 49.9848 129.2 49.6658 129.2C49.3478 129.2 48.9888 129.456 48.8688 129.77C48.7488 130.083 48.0088 130.644 47.2258 131.015C46.4428 131.387 45.8018 131.851 45.8018 132.046C45.8018 132.241 45.5598 132.4 45.2638 132.4C44.9678 132.4 44.3998 132.76 44.0018 133.2C43.6038 133.64 42.9458 134 42.5398 134C42.1338 134 41.8018 134.18 41.8018 134.4C41.8018 134.62 41.5658 134.8 41.2768 134.8C40.9888 134.8 40.3948 135.115 39.9568 135.5C38.8318 136.489 37.5158 137.2 36.8068 137.2C36.4738 137.2 36.2008 137.335 36.1988 137.5C36.1948 137.861 34.2568 138.8 33.5168 138.8C33.2278 138.8 32.6338 138.98 32.1968 139.2C31.7598 139.42 31.0438 139.78 30.6068 140C30.1698 140.22 29.4498 140.4 29.0068 140.4C28.5638 140.4 28.2018 140.58 28.2018 140.8C28.2018 141.02 27.6618 141.2 27.0018 141.2C26.3418 141.2 25.8018 141.38 25.8018 141.6C25.8018 141.82 25.2728 142 24.6258 142C23.9788 142 23.3378 142.18 23.2018 142.4C23.0658 142.62 21.7948 142.8 20.3778 142.8C18.9268 142.8 17.8018 142.975 17.8018 143.2C17.8018 143.433 16.4688 143.6 14.6018 143.6H11.4018V139.824C11.4018 137.737 11.5808 135.937 11.8018 135.8C12.0218 135.664 12.2018 134.584 12.2018 133.4C12.2018 132.216 12.3818 131.136 12.6018 131C12.8218 130.864 13.0018 129.943 13.0018 128.953C13.0018 127.855 13.1578 127.249 13.4018 127.4C13.6428 127.549 13.8018 127.012 13.8018 126.047C13.8018 125.167 13.9818 124.336 14.2018 124.2C14.4218 124.064 14.6018 123.333 14.6018 122.576C14.6018 121.819 14.7818 121.2 15.0018 121.2C15.2218 121.2 15.4018 120.671 15.4018 120.024C15.4018 119.377 15.5818 118.736 15.8018 118.6C16.0218 118.464 16.2018 117.834 16.2018 117.2C16.2018 116.566 16.3818 115.936 16.6018 115.8C16.8218 115.664 17.0018 115.124 17.0018 114.6C17.0018 114.076 17.1818 113.536 17.4018 113.4C17.6218 113.264 17.8018 112.801 17.8018 112.371C17.8018 111.941 17.9698 111.277 18.1758 110.895C18.3808 110.513 18.7848 109.615 19.0728 108.9C19.3618 108.185 19.7328 107.6 19.8998 107.6C20.0658 107.6 20.2018 107.251 20.2018 106.824C20.2018 106.397 20.3818 105.936 20.6018 105.8C20.8218 105.664 21.0018 105.113 21.0018 104.576C21.0018 104.039 21.1818 103.6 21.4018 103.6C21.6218 103.6 21.8018 103.347 21.8018 103.038C21.8018 102.372 23.4698 99.0588 23.9018 98.8668C24.0668 98.7928 24.2018 98.4708 24.2018 98.1498C24.2018 97.8288 24.5618 97.1798 25.0018 96.7078C25.4418 96.2358 25.8018 95.6128 25.8018 95.3248C25.8018 95.0358 25.9818 94.7998 26.2018 94.7998C26.4218 94.7998 26.6018 94.4398 26.6018 93.9998C26.6018 93.5598 26.7398 93.1998 26.9078 93.1998C27.0758 93.1998 27.5078 92.5248 27.8678 91.6998C28.2278 90.8748 28.9898 89.6598 29.5618 88.9998C30.1328 88.3398 30.6008 87.6148 30.6018 87.3878C30.6018 87.1618 30.9618 86.7168 31.4018 86.3998C31.8418 86.0828 32.2018 85.5828 32.2018 85.2898C32.2018 84.9968 32.7408 84.1808 33.3998 83.4778C34.0588 82.7748 34.5988 82.0648 34.5998 81.8998C34.6008 81.7358 35.3218 80.8588 36.2018 79.9518C37.0818 79.0448 37.8018 78.1398 37.8018 77.9388C37.8018 77.7388 39.8118 75.5758 42.2688 73.1338C47.7898 67.6438 47.9028 67.0728 44.0748 64.0348C43.3908 63.4918 39.4018 66.6098 39.4018 67.6878C39.4018 67.8628 37.9618 69.4648 36.2018 71.2488C34.4418 73.0328 33.0018 74.6508 33.0018 74.8458C33.0018 75.0398 32.2818 75.9408 31.4018 76.8478C30.5218 77.7548 29.8018 78.6558 29.8018 78.8518C29.8018 79.0468 29.2618 79.7718 28.6018 80.4628C27.9418 81.1538 27.4018 81.9618 27.4018 82.2588C27.4018 82.5568 27.2428 82.7998 27.0478 82.7998C26.8528 82.7998 26.4058 83.4048 26.0548 84.1448C25.7038 84.8848 25.1428 85.7168 24.8088 85.9938C24.4748 86.2708 24.2018 86.7458 24.2018 87.0488C24.2018 87.3518 24.0218 87.5998 23.8018 87.5998C23.5818 87.5998 23.4018 87.9598 23.4018 88.3998C23.4018 88.8398 23.2218 89.1998 23.0018 89.1998C22.7818 89.1998 22.6018 89.4358 22.6018 89.7248C22.6018 90.0128 22.2418 90.6358 21.8018 91.1078C21.3618 91.5798 21.0018 92.2438 21.0018 92.5828C21.0018 92.9218 20.8468 93.1998 20.6588 93.1998C20.3548 93.1998 16.5828 100.515 15.8118 102.6C15.6488 103.04 15.1298 104.182 14.6588 105.138C14.1878 106.094 13.8018 107.123 13.8018 107.426C13.8018 107.728 13.4418 108.617 13.0018 109.4C12.5618 110.183 12.2018 111.168 12.2018 111.589C12.2018 112.009 12.0218 112.464 11.8018 112.6C11.5818 112.736 11.4018 113.276 11.4018 113.8C11.4018 114.324 11.2218 114.864 11.0018 115C10.7818 115.136 10.6018 115.856 10.6018 116.6C10.6018 117.344 10.4218 118.064 10.2018 118.2C9.98177 118.336 9.80178 118.966 9.80178 119.6C9.80178 120.234 9.62178 120.864 9.40178 121C9.18178 121.136 9.00178 121.777 9.00178 122.424C9.00178 123.071 8.82178 123.6 8.60178 123.6C8.38178 123.6 8.20178 124.481 8.20178 125.557C8.20178 126.867 8.01678 127.586 7.64078 127.73C6.75178 128.071 6.60178 127.642 6.60178 124.757C6.60178 123.267 6.42178 121.936 6.20178 121.8C5.65578 121.463 5.65578 96.5368 6.20178 96.1998C6.42178 96.0638 6.60178 94.7928 6.60178 93.3758C6.60178 91.9248 6.77678 90.7998 7.00178 90.7998C7.22178 90.7998 7.40178 89.8998 7.40178 88.7998C7.40178 87.6998 7.58178 86.7998 7.80178 86.7998C8.02178 86.7998 8.20178 86.0798 8.20178 85.1998C8.20178 84.3198 8.38178 83.5998 8.60178 83.5998C8.82178 83.5998 9.00178 83.0708 9.00178 82.4238C9.00178 81.7768 9.18178 81.1358 9.40178 80.9998C9.62178 80.8638 9.80178 80.3108 9.80178 79.7708C9.80178 79.2308 9.98177 78.4318 10.2018 77.9948C10.4218 77.5578 10.7818 76.8418 11.0018 76.4048C11.2218 75.9678 11.4018 75.2478 11.4018 74.8048C11.4018 74.3618 11.5818 73.9998 11.8018 73.9998C12.0218 73.9998 12.2018 73.5608 12.2018 73.0238C12.2018 72.4868 12.3818 71.9358 12.6018 71.7998C12.8218 71.6638 13.0018 71.2028 13.0018 70.7758C13.0018 70.3488 13.1818 69.9998 13.4018 69.9998C13.6218 69.9998 13.8018 69.6398 13.8018 69.1998C13.8018 68.7598 13.9818 68.3998 14.2018 68.3998C14.4218 68.3998 14.6018 68.1278 14.6018 67.7948C14.6018 67.2388 15.3238 65.6778 15.8018 65.1998C16.0488 64.9528 16.9638 63.3658 17.7008 61.9078C18.0038 61.3068 18.4158 60.7148 18.6168 60.5908C18.8168 60.4668 19.2708 59.7538 19.6258 59.0058C19.9808 58.2578 20.7958 57.0968 21.4368 56.4268C22.0778 55.7558 22.6018 55.0118 22.6018 54.7718C22.6018 54.5328 23.2828 53.6758 24.1148 52.8688C24.9468 52.0608 26.0698 50.7698 26.6108 49.9998C27.8588 48.2238 33.2598 42.7998 33.7808 42.7998C33.9968 42.7998 34.3668 42.4398 34.6018 41.9998C34.8368 41.5598 35.1818 41.1998 35.3668 41.1998C35.5518 41.1998 36.4678 40.4798 37.4018 39.5998C38.3358 38.7198 39.3088 37.9998 39.5628 37.9998C39.8168 37.9998 40.2848 37.6398 40.6018 37.1998C40.9188 36.7598 41.4558 36.3998 41.7938 36.3998C42.1328 36.3998 42.6338 36.0398 42.9088 35.5998C43.1838 35.1598 43.6488 34.7998 43.9428 34.7998C44.2368 34.7998 44.8038 34.4398 45.2018 33.9998C45.5998 33.5598 46.2578 33.1998 46.6638 33.1998C47.0698 33.1998 47.4018 33.0198 47.4018 32.7998C47.4018 32.5798 47.6378 32.3998 47.9268 32.3998C48.2148 32.3998 48.8378 32.0398 49.3098 31.5998C49.7818 31.1598 50.4458 30.7998 50.7848 30.7998C51.1238 30.7998 51.4018 30.6618 51.4018 30.4938C51.4018 30.3258 52.0978 29.8868 52.9488 29.5178C53.8008 29.1498 54.7458 28.6118 55.0488 28.3238C55.8238 27.5888 58.9628 25.9998 59.6398 25.9998C59.9488 25.9998 60.2018 25.8198 60.2018 25.5998C60.2018 25.3798 60.6408 25.1998 61.1778 25.1998C61.7148 25.1998 62.2658 25.0198 62.4018 24.7998C62.5378 24.5798 62.9988 24.3998 63.4258 24.3998C63.8528 24.3998 64.2018 24.2198 64.2018 23.9998C64.2018 23.7798 64.5618 23.5998 65.0018 23.5998C65.4418 23.5998 65.8028 23.4648 65.8048 23.2998C65.8098 22.8528 67.8278 21.9998 68.8818 21.9998C69.3878 21.9998 69.8018 21.8198 69.8018 21.5998C69.8018 21.3798 70.2408 21.1998 70.7778 21.1998C71.3148 21.1998 71.8658 21.0198 72.0018 20.7998C72.1378 20.5798 72.5988 20.3998 73.0258 20.3998C73.4528 20.3998 73.8018 20.2198 73.8018 19.9998C73.8018 19.7798 74.2408 19.5998 74.7778 19.5998C75.3148 19.5998 75.8658 19.4198 76.0018 19.1998C76.1378 18.9798 76.7678 18.7998 77.4018 18.7998C78.0358 18.7998 78.6658 18.6198 78.8018 18.3998C78.9378 18.1798 79.5678 17.9998 80.2018 17.9998C80.8358 17.9998 81.4658 17.8198 81.6018 17.5998C81.7378 17.3798 82.3788 17.1998 83.0258 17.1998C83.6728 17.1998 84.2018 17.0198 84.2018 16.7998C84.2018 16.5798 84.8208 16.3998 85.5778 16.3998C86.3348 16.3998 87.0658 16.2198 87.2018 15.9998C87.3378 15.7798 87.9788 15.5998 88.6258 15.5998C89.2728 15.5998 89.8018 15.4198 89.8018 15.1998C89.8018 14.9798 90.6008 14.7998 91.5778 14.7998C92.5548 14.7998 93.4658 14.6198 93.6018 14.3998C93.7378 14.1798 94.5588 13.9998 95.4258 13.9998C96.2928 13.9998 97.0018 13.8198 97.0018 13.5998C97.0018 13.3798 97.9018 13.1998 99.0018 13.1998C100.102 13.1998 101.002 13.0198 101.002 12.7998C101.002 12.5708 102.202 12.3998 103.802 12.3998C105.402 12.3998 106.602 12.2288 106.602 11.9998C106.602 11.7778 107.669 11.5998 109.002 11.5998C110.335 11.5998 111.402 11.4218 111.402 11.1998C111.402 10.9668 112.727 10.7998 114.578 10.7998C116.469 10.7998 117.866 10.6208 118.028 10.3568C118.631 9.38178 118.791 10.8918 118.526 15.0588ZM124.302 117.471C122.927 118.916 121.802 120.28 121.802 120.502C121.802 120.724 121.486 121.197 121.099 121.553C120.713 121.909 120.142 122.695 119.832 123.3C119.521 123.905 119.117 124.4 118.934 124.4C118.752 124.4 118.602 124.653 118.602 124.962C118.602 125.628 116.934 128.941 116.502 129.133C116.337 129.207 116.202 129.601 116.202 130.01C116.202 130.418 116.022 130.864 115.802 131C115.582 131.136 115.402 131.867 115.402 132.624C115.402 133.381 115.222 134 115.002 134C114.756 134 114.602 135.992 114.602 139.176C114.602 142.196 114.769 144.456 115.002 144.6C115.222 144.736 115.402 145.467 115.402 146.224C115.402 146.981 115.582 147.6 115.802 147.6C116.022 147.6 116.202 147.96 116.202 148.4C116.202 148.84 116.382 149.2 116.602 149.2C116.822 149.2 117.002 149.56 117.002 150C117.002 150.44 117.182 150.8 117.402 150.8C117.622 150.8 117.802 151.066 117.802 151.39C117.802 152.862 126.372 160.4 128.046 160.4C128.592 160.4 133.001 156.22 133.003 155.7C133.003 155.535 133.543 154.77 134.202 154C134.861 153.23 135.401 152.415 135.401 152.188C135.402 151.962 135.762 151.517 136.202 151.2C136.642 150.883 137.002 150.224 137.002 149.735C137.002 149.247 137.182 148.736 137.402 148.6C137.622 148.464 137.802 148.003 137.802 147.576C137.802 147.149 137.982 146.8 138.202 146.8C138.422 146.8 138.602 146.001 138.602 145.024C138.602 144.047 138.782 143.136 139.002 143C139.222 142.864 139.402 141.424 139.402 139.8C139.402 138.176 139.222 136.736 139.002 136.6C138.782 136.464 138.602 135.463 138.602 134.376C138.602 133.289 138.422 132.4 138.202 132.4C137.982 132.4 137.802 131.781 137.802 131.024C137.802 130.267 137.622 129.536 137.402 129.4C137.182 129.264 137.002 128.803 137.002 128.376C137.002 127.949 136.822 127.6 136.602 127.6C136.382 127.6 136.202 127.24 136.202 126.8C136.202 126.36 136.022 126 135.802 126C135.582 126 135.402 125.722 135.402 125.383C135.402 125.044 135.042 124.38 134.602 123.908C134.162 123.436 133.802 122.813 133.802 122.525C133.802 122.236 133.622 122 133.402 122C133.182 122 133.002 121.712 133.002 121.36C133.002 121.009 132.462 120.217 131.802 119.6C131.142 118.983 130.602 118.316 130.602 118.118C130.602 117.507 127.928 114.799 127.348 114.822C127.048 114.834 125.677 116.026 124.302 117.471ZM128.429 124.6C128.794 125.37 129.253 126 129.448 126C129.643 126 129.802 126.36 129.802 126.8C129.802 127.24 129.982 127.6 130.202 127.6C130.422 127.6 130.602 127.96 130.602 128.4C130.602 128.84 130.782 129.2 131.002 129.2C131.222 129.2 131.402 129.56 131.402 130C131.402 130.44 131.582 130.8 131.802 130.8C132.022 130.8 132.202 131.149 132.202 131.576C132.202 132.003 132.382 132.464 132.602 132.6C132.822 132.736 133.002 133.467 133.002 134.224C133.002 134.981 133.182 135.6 133.402 135.6C133.642 135.6 133.802 137.192 133.802 139.576C133.802 141.796 133.625 143.662 133.402 143.8C133.182 143.936 133.002 144.487 133.002 145.024C133.002 145.561 132.822 146 132.602 146C132.382 146 132.202 146.36 132.202 146.8C132.202 147.24 132.022 147.6 131.802 147.6C131.582 147.6 131.402 147.916 131.402 148.301C131.402 148.687 130.862 149.512 130.202 150.135C129.542 150.758 129.002 151.445 129.002 151.662C129.002 152.215 127.957 153.2 127.37 153.2C126.789 153.2 122.602 148.962 122.602 148.374C122.602 148.15 122.242 147.58 121.802 147.108C121.362 146.636 121.002 145.934 121.002 145.548C121.002 145.163 120.822 144.736 120.602 144.6C120.382 144.464 120.202 143.499 120.202 142.456C120.202 141.413 119.982 140.34 119.712 140.07C119.363 139.721 119.341 139.381 119.634 138.89C119.86 138.511 120.096 137.407 120.159 136.438C120.221 135.47 120.436 134.345 120.637 133.938C120.838 133.532 121.182 132.842 121.402 132.405C121.622 131.968 121.802 131.248 121.802 130.805C121.802 130.362 121.952 130 122.134 130C122.317 130 122.722 129.505 123.034 128.9C123.347 128.295 123.917 127.451 124.302 127.025C124.687 126.598 125.002 126.073 125.002 125.858C125.002 125.415 127.052 123.228 127.483 123.211C127.638 123.205 128.063 123.83 128.429 124.6ZM49.0018 144.777C48.6718 144.959 47.8628 145.353 47.2048 145.654C44.9628 146.677 42.6018 149.581 42.6018 151.315C42.6018 151.824 42.3818 152.46 42.1118 152.73C41.7248 153.117 41.7248 153.385 42.1118 154.005C42.3818 154.436 42.6018 155.681 42.6018 156.771C42.6018 157.861 42.7818 158.864 43.0018 159C43.2218 159.136 43.4018 160.227 43.4018 161.424C43.4018 162.621 43.5818 163.6 43.8018 163.6C44.0218 163.6 44.2018 164.5 44.2018 165.6C44.2018 166.7 44.3818 167.6 44.6018 167.6C44.8218 167.6 45.0018 168.579 45.0018 169.776C45.0018 170.973 45.1818 172.064 45.4018 172.2C45.6218 172.336 45.8018 173.121 45.8018 173.944C45.8018 174.767 45.9648 175.611 46.1648 175.82C46.3648 176.029 46.6278 177.1 46.7498 178.2C47.1868 182.148 47.4898 183.806 47.8428 184.18C48.0398 184.389 48.2018 185.244 48.2018 186.08C48.2018 186.916 48.3818 187.6 48.6018 187.6C48.8218 187.6 49.0018 188.32 49.0018 189.2C49.0018 190.08 49.1818 190.8 49.4018 190.8C49.6218 190.8 49.8018 191.419 49.8018 192.176C49.8018 192.933 49.9818 193.664 50.2018 193.8C50.4218 193.936 50.6018 194.476 50.6018 195C50.6018 195.524 50.7818 196.064 51.0018 196.2C51.2218 196.336 51.4018 196.799 51.4018 197.229C51.4018 197.659 51.5818 198.368 51.8018 198.805C52.0218 199.242 52.3818 199.958 52.6018 200.395C52.8218 200.832 53.0018 201.552 53.0018 201.995C53.0018 202.438 53.1818 202.8 53.4018 202.8C53.6218 202.8 53.8018 203.16 53.8018 203.6C53.8018 204.04 53.9818 204.4 54.2018 204.4C54.4218 204.4 54.6018 204.755 54.6018 205.188C54.6018 205.621 54.9618 206.617 55.4018 207.4C55.8418 208.183 56.2018 209.089 56.2018 209.412C56.2018 209.735 56.3818 210 56.6018 210C56.8218 210 57.0018 210.36 57.0018 210.8C57.0018 211.24 57.1478 211.6 57.3268 211.6C57.5058 211.6 57.9008 212.234 58.2048 213.009C58.5088 213.783 59.0828 214.711 59.4798 215.071C59.8768 215.43 60.2018 216.056 60.2018 216.462C60.2018 216.868 60.3518 217.2 60.5338 217.2C60.7168 217.2 61.1208 217.695 61.4318 218.3C61.7418 218.905 62.3128 219.691 62.6988 220.047C63.0858 220.403 63.4018 220.948 63.4018 221.259C63.4018 221.569 63.7618 222.083 64.2018 222.4C64.6418 222.717 65.0018 223.18 65.0018 223.429C65.0018 223.678 65.5418 224.446 66.2018 225.137C66.8618 225.828 67.4018 226.553 67.4018 226.748C67.4018 226.944 68.0768 227.806 68.9018 228.664C69.7268 229.522 70.8858 230.849 71.4778 231.612C72.0688 232.375 73.3738 233.876 74.3778 234.947C75.3808 236.018 76.2018 237.103 76.2018 237.359C76.2018 237.614 76.5618 238.083 77.0018 238.4C77.4418 238.717 77.8018 239.297 77.8018 239.688C77.8018 240.08 77.9818 240.4 78.2018 240.4C78.4218 240.4 78.6018 240.642 78.6018 240.938C78.6018 241.234 78.9618 241.802 79.4018 242.2C79.8418 242.598 80.2018 243.165 80.2018 243.459C80.2018 244.486 81.9128 246 83.0738 246C83.6938 246 84.2018 245.82 84.2018 245.6C84.2018 245.38 84.4848 245.2 84.8308 245.2C86.5268 245.2 87.1098 243.096 85.8018 241.692C85.3618 241.22 85.0018 240.556 85.0018 240.217C85.0018 239.878 84.8218 239.6 84.6018 239.6C84.3818 239.6 84.2018 239.364 84.2018 239.075C84.2018 238.787 83.8798 238.202 83.4848 237.775C82.3668 236.565 80.2018 233.303 80.2018 232.828C80.2018 232.593 80.0608 232.4 79.8878 232.4C79.7158 232.4 79.2648 231.876 78.8858 231.235C78.5078 230.595 77.0288 228.901 75.5998 227.472C74.1708 226.043 73.0018 224.721 73.0018 224.533C73.0018 224.346 72.1018 223.224 71.0018 222.04C69.9018 220.856 69.0018 219.642 69.0018 219.343C69.0018 219.045 68.8218 218.8 68.6018 218.8C68.3818 218.8 68.2018 218.552 68.2018 218.249C68.2018 217.946 67.9288 217.471 67.5948 217.194C67.2608 216.917 66.6998 216.085 66.3488 215.345C65.9978 214.605 65.5508 214 65.3558 214C65.1608 214 65.0018 213.655 65.0018 213.233C65.0018 212.812 64.8668 212.407 64.7018 212.333C64.3258 212.166 63.0268 210.036 62.7308 209.1C62.6088 208.715 62.3498 208.4 62.1548 208.4C61.9608 208.4 61.8018 208.04 61.8018 207.6C61.8018 207.16 61.6218 206.8 61.4018 206.8C61.1818 206.8 61.0018 206.445 61.0018 206.012C61.0018 205.579 60.6418 204.583 60.2018 203.8C59.7618 203.017 59.4018 202.111 59.4018 201.788C59.4018 201.465 59.2668 201.199 59.1018 201.197C58.6548 201.192 57.8018 199.174 57.8018 198.12C57.8018 197.614 57.6218 197.2 57.4018 197.2C57.1818 197.2 57.0018 196.761 57.0018 196.224C57.0018 195.687 56.8218 195.136 56.6018 195C56.3818 194.864 56.2018 194.324 56.2018 193.8C56.2018 193.276 56.0218 192.736 55.8018 192.6C55.5818 192.464 55.4018 191.823 55.4018 191.176C55.4018 190.529 55.2218 190 55.0018 190C54.7818 190 54.6018 189.381 54.6018 188.624C54.6018 187.867 54.4218 187.136 54.2018 187C53.9818 186.864 53.8018 186.144 53.8018 185.4C53.8018 184.656 53.6218 183.936 53.4018 183.8C53.1818 183.664 53.0018 182.854 53.0018 182C53.0018 181.146 52.8218 180.336 52.6018 180.2C52.3818 180.064 52.2018 179.153 52.2018 178.176C52.2018 177.199 52.0218 176.4 51.8018 176.4C51.5818 176.4 51.4018 175.446 51.4018 174.28C51.4018 173.114 51.2398 171.989 51.0428 171.78C50.6808 171.397 50.3488 169.558 49.9468 165.7C49.8268 164.545 49.5648 163.6 49.3648 163.6C49.1648 163.6 49.0018 162.715 49.0018 161.633C49.0018 160.552 48.8368 159.607 48.6348 159.533C48.4328 159.46 48.2188 158.5 48.1598 157.4C48.1008 156.3 47.8688 155.096 47.6458 154.725C46.8468 153.395 49.3898 150 51.1838 150C51.7438 150 52.2018 150.18 52.2018 150.4C52.2018 150.62 52.4848 150.8 52.8308 150.8C53.6388 150.8 54.6018 151.763 54.6018 152.571C54.6018 152.917 54.7818 153.2 55.0018 153.2C55.2218 153.2 55.4018 153.639 55.4018 154.176C55.4018 154.713 55.5818 155.264 55.8018 155.4C56.0218 155.536 56.2018 155.991 56.2018 156.411C56.2018 156.832 56.5618 157.817 57.0018 158.6C57.4418 159.383 57.8018 160.469 57.8018 161.012C57.8018 161.555 57.9818 162 58.2018 162C58.4218 162 58.6018 162.54 58.6018 163.2C58.6018 163.86 58.7818 164.4 59.0018 164.4C59.2218 164.4 59.4018 164.839 59.4018 165.376C59.4018 165.913 59.5818 166.464 59.8018 166.6C60.0218 166.736 60.2018 167.191 60.2018 167.611C60.2018 168.032 60.5618 169.017 61.0018 169.8C61.4418 170.583 61.8018 171.669 61.8018 172.212C61.8018 172.755 61.9818 173.2 62.2018 173.2C62.4218 173.2 62.6018 173.74 62.6018 174.4C62.6018 175.06 62.7818 175.6 63.0018 175.6C63.2218 175.6 63.4018 176.039 63.4018 176.576C63.4018 177.113 63.5818 177.664 63.8018 177.8C64.0218 177.936 64.2018 178.476 64.2018 179C64.2018 179.524 64.3818 180.064 64.6018 180.2C64.8218 180.336 65.0018 180.797 65.0018 181.224C65.0018 181.651 65.1818 182 65.4018 182C65.6218 182 65.8018 182.54 65.8018 183.2C65.8018 183.86 65.9818 184.4 66.2018 184.4C66.4218 184.4 66.6018 184.94 66.6018 185.6C66.6018 186.26 66.7818 186.8 67.0018 186.8C67.2218 186.8 67.4018 187.239 67.4018 187.776C67.4018 188.313 67.5818 188.864 67.8018 189C68.0218 189.136 68.2018 189.676 68.2018 190.2C68.2018 190.724 68.3818 191.264 68.6018 191.4C68.8218 191.536 69.0018 191.997 69.0018 192.424C69.0018 192.851 69.1818 193.2 69.4018 193.2C69.6218 193.2 69.8018 193.52 69.8018 193.912C69.8018 194.303 70.1618 194.883 70.6018 195.2C71.0418 195.517 71.4018 195.985 71.4018 196.24C71.4018 196.495 72.1218 197.445 73.0018 198.352C73.8818 199.259 74.6018 200.159 74.6018 200.352C74.6018 200.545 75.3218 201.445 76.2018 202.352C77.0818 203.259 77.8018 204.159 77.8018 204.352C77.8018 204.545 78.5218 205.445 79.4018 206.352C80.2818 207.259 81.0018 208.146 81.0018 208.322C81.0018 208.499 81.5868 209.292 82.3018 210.085C84.3438 212.35 85.0018 213.185 85.0018 213.516C85.0018 213.685 85.3618 214.083 85.8018 214.4C86.2418 214.717 86.6018 215.162 86.6018 215.388C86.6048 217.751 89.7178 218.511 91.6148 216.613C93.3958 214.833 93.3608 214.093 91.4018 212.095C90.5218 211.197 89.8018 210.29 89.8018 210.08C89.8018 209.869 89.0818 208.955 88.2018 208.048C87.3218 207.141 86.6018 206.248 86.6018 206.063C86.6018 205.878 85.8818 204.993 85.0018 204.095C84.1218 203.197 83.4018 202.269 83.4018 202.031C83.4018 201.794 83.2218 201.6 83.0018 201.6C82.7818 201.6 82.6018 201.396 82.6018 201.147C82.6018 200.898 82.2778 200.403 81.8828 200.047C81.4878 199.691 80.7308 198.77 80.2018 198C79.6728 197.23 78.9158 196.309 78.5208 195.953C78.1258 195.597 77.8018 195.124 77.8018 194.901C77.8018 194.679 77.0758 193.748 76.1878 192.834C74.4088 191 74.6158 190 76.7728 190C77.3388 190 77.8018 189.82 77.8018 189.6C77.8018 189.38 78.5218 189.2 79.4018 189.2C80.2818 189.2 81.0018 189.38 81.0018 189.6C81.0018 189.82 81.2738 190 81.6068 190C82.8448 190 87.4018 193.764 87.4018 194.786C87.4018 195.01 87.9418 195.709 88.6018 196.34C89.2618 196.971 89.8018 197.67 89.8018 197.895C89.8018 198.12 90.5218 199.045 91.4018 199.952C92.2818 200.859 93.0018 201.752 93.0018 201.937C93.0018 202.122 93.8148 203.133 94.8078 204.184C95.8008 205.236 96.9198 206.615 97.2938 207.248C97.6678 207.882 98.1158 208.4 98.2878 208.4C98.4608 208.4 98.6018 208.643 98.6018 208.941C98.6018 209.238 99.0968 210.016 99.7018 210.67C101.048 212.125 101.802 213.391 101.802 214.195C101.802 214.528 101.982 214.8 102.202 214.8C102.422 214.8 102.602 215.036 102.602 215.325C102.602 215.613 102.962 216.236 103.402 216.708C103.842 217.18 104.202 217.757 104.202 217.989C104.202 218.221 104.41 218.813 104.664 219.305C105.635 221.182 105.802 221.607 105.802 222.195C105.802 222.528 105.937 222.801 106.102 222.803C106.549 222.808 107.402 224.826 107.402 225.88C107.402 226.386 107.582 226.8 107.802 226.8C108.022 226.8 108.202 227.143 108.202 227.562C108.202 228.221 108.688 229.389 110.252 232.495C110.445 232.877 110.602 233.552 110.602 233.995C110.602 234.438 110.782 234.8 111.002 234.8C111.222 234.8 111.402 235.34 111.402 236C111.402 236.66 111.582 237.2 111.802 237.2C112.022 237.2 112.202 237.639 112.202 238.176C112.202 238.713 112.382 239.264 112.602 239.4C112.822 239.536 113.002 239.997 113.002 240.424C113.002 240.851 113.182 241.2 113.402 241.2C113.622 241.2 113.802 241.639 113.802 242.176C113.802 243.324 114.484 243.878 115.117 243.245C115.362 243 115.858 242.8 116.221 242.8C117.917 242.8 119.954 241.188 119.002 240.6C118.782 240.464 118.602 239.823 118.602 239.176C118.602 238.529 118.467 237.999 118.302 237.997C117.855 237.992 117.002 235.974 117.002 234.92C117.002 234.414 116.822 234 116.602 234C116.382 234 116.202 233.651 116.202 233.224C116.202 232.797 116.022 232.336 115.802 232.2C115.582 232.064 115.402 231.434 115.402 230.8C115.402 230.166 115.222 229.536 115.002 229.4C114.782 229.264 114.602 228.803 114.602 228.376C114.602 227.949 114.422 227.6 114.202 227.6C113.982 227.6 113.802 227.161 113.802 226.624C113.802 226.087 113.622 225.536 113.402 225.4C113.182 225.264 113.002 224.803 113.002 224.376C113.002 223.949 112.822 223.6 112.602 223.6C112.382 223.6 112.202 223.06 112.202 222.4C112.202 221.74 112.022 221.2 111.802 221.2C111.582 221.2 111.402 220.84 111.402 220.4C111.402 219.96 111.222 219.6 111.002 219.6C110.782 219.6 110.598 219.195 110.593 218.7C110.588 218.205 110.232 217.35 109.802 216.8C109.372 216.25 109.016 215.485 109.011 215.1C109.006 214.715 108.822 214.4 108.602 214.4C108.382 214.4 108.202 214.158 108.202 213.861C108.202 213.098 107.095 210.976 106.394 210.393C106.068 210.123 105.802 209.646 105.802 209.333C105.802 209.02 105.365 208.327 104.831 207.793C104.297 207.259 103.538 206.277 103.145 205.611C102.751 204.945 102.288 204.4 102.116 204.4C101.943 204.4 101.802 204.159 101.802 203.864C101.802 203.569 101.082 202.593 100.202 201.695C99.3218 200.797 98.6018 199.89 98.6018 199.68C98.6018 199.469 97.8818 198.555 97.0018 197.648C96.1218 196.741 95.4018 195.841 95.4018 195.648C95.4018 195.455 94.6818 194.555 93.8018 193.648C92.9218 192.741 92.2018 191.839 92.2018 191.644C92.2018 191.093 88.0948 187.069 86.8828 186.432C86.2878 186.12 85.8018 185.715 85.8018 185.532C85.8018 185.35 85.4528 185.2 85.0258 185.2C84.5988 185.2 84.1378 185.02 84.0018 184.8C83.7168 184.338 74.6038 184.241 74.5988 184.7C74.5958 184.97 72.5008 186.126 72.4308 185.896C72.4148 185.843 72.1768 185.397 71.9018 184.905C71.6268 184.413 71.4018 183.558 71.4018 183.005C71.4018 182.452 71.2218 182 71.0018 182C70.7818 182 70.6018 181.46 70.6018 180.8C70.6018 180.14 70.4218 179.6 70.2018 179.6C69.9818 179.6 69.8018 179.251 69.8018 178.824C69.8018 178.397 69.6218 177.936 69.4018 177.8C69.1818 177.664 69.0018 177.034 69.0018 176.4C69.0018 175.766 68.8218 175.136 68.6018 175C68.3818 174.864 68.2018 174.324 68.2018 173.8C68.2018 173.276 68.0218 172.736 67.8018 172.6C67.5818 172.464 67.4018 171.924 67.4018 171.4C67.4018 170.876 67.2218 170.336 67.0018 170.2C66.7818 170.064 66.6018 169.603 66.6018 169.176C66.6018 168.749 66.4218 168.4 66.2018 168.4C65.9818 168.4 65.8018 167.86 65.8018 167.2C65.8018 166.54 65.6218 166 65.4018 166C65.1818 166 65.0018 165.46 65.0018 164.8C65.0018 164.14 64.8218 163.6 64.6018 163.6C64.3818 163.6 64.2018 163.251 64.2018 162.824C64.2018 162.397 64.0218 161.936 63.8018 161.8C63.5818 161.664 63.4018 161.034 63.4018 160.4C63.4018 159.766 63.2218 159.136 63.0018 159C62.7818 158.864 62.6018 158.324 62.6018 157.8C62.6018 157.276 62.4218 156.736 62.2018 156.6C61.9818 156.464 61.8018 155.924 61.8018 155.4C61.8018 154.876 61.6218 154.336 61.4018 154.2C61.1818 154.064 61.0018 153.603 61.0018 153.176C61.0018 152.749 60.8218 152.4 60.6018 152.4C60.3818 152.4 60.2018 151.86 60.2018 151.2C60.2018 150.54 60.0218 150 59.8018 150C59.5818 150 59.4018 149.712 59.4018 149.36C59.4018 148.052 55.8098 145.2 54.1618 145.2C53.3298 145.2 52.5378 145.02 52.4018 144.8C52.1078 144.324 49.8528 144.309 49.0018 144.777ZM202.802 144.8C202.666 145.02 202.098 145.2 201.54 145.2C199.66 145.2 195.429 148.98 195.411 150.676C195.406 151.158 195.222 151.664 195.002 151.8C194.782 151.936 194.602 152.476 194.602 153C194.602 153.524 194.422 154.064 194.202 154.2C193.982 154.336 193.802 154.887 193.802 155.424C193.802 155.961 193.622 156.4 193.402 156.4C193.182 156.4 193.002 156.94 193.002 157.6C193.002 158.26 192.822 158.8 192.602 158.8C192.382 158.8 192.202 159.34 192.202 160C192.202 160.66 192.022 161.2 191.802 161.2C191.582 161.2 191.402 161.652 191.402 162.205C191.402 162.758 191.243 163.523 191.049 163.905C190.854 164.287 190.473 165.14 190.202 165.8C189.931 166.46 189.55 167.313 189.355 167.695C189.161 168.077 189.002 168.741 189.002 169.171C189.002 169.601 188.822 170.064 188.602 170.2C188.382 170.336 188.202 170.876 188.202 171.4C188.202 171.924 188.022 172.464 187.802 172.6C187.582 172.736 187.402 173.366 187.402 174C187.402 174.634 187.222 175.264 187.002 175.4C186.782 175.536 186.602 175.997 186.602 176.424C186.602 176.851 186.422 177.2 186.202 177.2C185.982 177.2 185.802 177.74 185.802 178.4C185.802 179.06 185.622 179.6 185.402 179.6C185.182 179.6 185.002 180.052 185.002 180.605C185.002 181.158 184.822 181.968 184.602 182.405C184.382 182.842 184.022 183.558 183.802 183.995C183.582 184.432 183.402 185.077 183.402 185.428C183.402 185.797 183.191 185.968 182.902 185.834C182.627 185.705 182.087 185.489 181.702 185.354C181.317 185.218 181.002 184.948 181.002 184.753C181.002 184.559 178.842 184.4 176.202 184.4C173.562 184.4 171.401 184.535 171.399 184.7C171.396 185.009 169.5 186 168.914 186C168.501 186 164.204 190.272 164.196 190.691C164.192 190.861 163.292 191.981 162.196 193.179C161.099 194.378 160.202 195.521 160.202 195.719C160.202 195.917 159.7 196.556 159.087 197.14C158.473 197.723 157.53 198.83 156.991 199.6C156.452 200.37 155.514 201.522 154.906 202.159C154.299 202.797 153.802 203.497 153.802 203.716C153.802 203.935 153.307 204.591 152.702 205.174C152.097 205.757 151.347 206.722 151.034 207.317C150.722 207.913 150.317 208.4 150.134 208.4C149.952 208.4 149.802 208.72 149.802 209.112C149.802 209.503 149.442 210.083 149.002 210.4C148.562 210.717 148.202 211.297 148.202 211.688C148.202 212.08 148.022 212.4 147.802 212.4C147.582 212.4 147.402 212.76 147.402 213.2C147.402 213.64 147.222 214 147.002 214C146.782 214 146.602 214.36 146.602 214.8C146.602 215.24 146.422 215.6 146.202 215.6C145.982 215.6 145.802 215.96 145.802 216.4C145.802 216.84 145.622 217.2 145.402 217.2C145.182 217.2 145.002 217.549 145.002 217.976C145.002 218.403 144.822 218.864 144.602 219C144.382 219.136 144.202 219.687 144.202 220.224C144.202 220.761 144.022 221.2 143.802 221.2C143.582 221.2 143.402 221.56 143.402 222C143.402 222.44 143.222 222.8 143.002 222.8C142.782 222.8 142.602 223.34 142.602 224C142.602 224.66 142.422 225.2 142.202 225.2C141.982 225.2 141.802 225.549 141.802 225.976C141.802 226.403 141.622 226.864 141.402 227C141.182 227.136 141.002 227.687 141.002 228.224C141.002 228.761 140.822 229.2 140.602 229.2C140.382 229.2 140.202 229.74 140.202 230.4C140.202 231.06 140.022 231.6 139.802 231.6C139.582 231.6 139.402 232.039 139.402 232.576C139.402 233.113 139.222 233.664 139.002 233.8C138.782 233.936 138.602 234.399 138.602 234.829C138.602 235.259 138.443 235.923 138.249 236.305C138.054 236.687 137.67 237.54 137.395 238.2C137.12 238.86 136.718 239.788 136.501 240.262C135.973 241.419 136.255 241.76 138.282 242.413C139.228 242.717 140.119 243.135 140.262 243.342C140.735 244.025 141.802 243.243 141.802 242.213C141.802 241.656 141.982 241.2 142.202 241.2C142.422 241.2 142.602 240.66 142.602 240C142.602 239.34 142.782 238.8 143.002 238.8C143.222 238.8 143.402 238.451 143.402 238.024C143.402 237.597 143.582 237.136 143.802 237C144.022 236.864 144.202 236.313 144.202 235.776C144.202 235.239 144.382 234.8 144.602 234.8C144.822 234.8 145.002 234.26 145.002 233.6C145.002 232.94 145.182 232.4 145.402 232.4C145.622 232.4 145.802 232.051 145.802 231.624C145.802 231.197 145.982 230.736 146.202 230.6C146.422 230.464 146.602 229.913 146.602 229.376C146.602 228.839 146.782 228.4 147.002 228.4C147.222 228.4 147.402 227.86 147.402 227.2C147.402 226.54 147.582 226 147.802 226C148.022 226 148.206 225.595 148.211 225.1C148.216 224.605 148.572 223.75 149.002 223.2C149.432 222.65 149.788 221.795 149.793 221.3C149.798 220.805 149.982 220.4 150.202 220.4C150.422 220.4 150.602 220.04 150.602 219.6C150.602 219.16 150.782 218.8 151.002 218.8C151.222 218.8 151.402 218.44 151.402 218C151.402 217.56 151.582 217.2 151.802 217.2C152.022 217.2 152.202 216.868 152.202 216.462C152.202 216.056 152.562 215.398 153.002 215C153.442 214.602 153.802 214.034 153.802 213.738C153.802 213.442 153.982 213.2 154.202 213.2C154.422 213.2 154.602 212.842 154.602 212.403C154.602 211.965 154.962 211.382 155.402 211.107C155.842 210.832 156.202 210.404 156.202 210.154C156.202 209.905 156.922 208.913 157.802 207.951C158.682 206.988 159.402 206.065 159.402 205.901C159.402 205.736 160.122 204.859 161.002 203.952C161.882 203.045 162.602 202.144 162.602 201.948C162.602 201.753 163.142 201.028 163.802 200.337C164.462 199.646 165.002 198.928 165.002 198.741C165.002 198.554 165.722 197.659 166.602 196.752C167.482 195.845 168.202 194.949 168.202 194.761C168.202 193.858 172.529 190 173.542 190C174.125 190 174.602 189.82 174.602 189.6C174.602 189.38 175.322 189.2 176.202 189.2C177.082 189.2 177.802 189.38 177.802 189.6C177.802 189.82 178.265 190 178.831 190C180.803 190 181.249 191.048 179.837 192.367C179.158 193.002 178.602 193.687 178.602 193.89C178.602 194.093 177.702 195.222 176.602 196.4C175.502 197.578 174.602 198.689 174.602 198.87C174.602 199.051 173.882 199.941 173.002 200.848C172.122 201.755 171.402 202.669 171.402 202.88C171.402 203.09 170.682 203.997 169.802 204.895C168.922 205.793 168.202 206.68 168.202 206.867C168.202 207.054 167.662 207.772 167.002 208.463C166.342 209.154 165.802 209.872 165.802 210.059C165.802 210.246 165.082 211.141 164.202 212.048C162.243 214.067 162.207 214.832 163.989 216.613C165.704 218.328 167.046 218.428 167.834 216.9C168.146 216.295 169.077 215.096 169.902 214.236C170.727 213.376 171.402 212.522 171.402 212.337C171.402 212.152 172.122 211.259 173.002 210.352C173.882 209.445 174.602 208.52 174.602 208.295C174.602 208.07 175.142 207.371 175.802 206.74C176.462 206.109 177.002 205.397 177.002 205.157C177.002 204.917 177.504 204.244 178.117 203.66C178.731 203.077 179.674 201.97 180.213 201.2C180.752 200.43 181.69 199.278 182.298 198.641C182.905 198.003 183.402 197.303 183.402 197.084C183.402 196.865 183.942 196.171 184.602 195.54C185.262 194.909 185.802 194.125 185.802 193.797C185.802 193.468 185.982 193.2 186.202 193.2C186.422 193.2 186.602 192.66 186.602 192C186.602 191.34 186.782 190.8 187.002 190.8C187.222 190.8 187.402 190.438 187.402 189.995C187.402 189.552 187.582 188.832 187.802 188.395C188.022 187.958 188.382 187.242 188.602 186.805C188.822 186.368 189.002 185.569 189.002 185.029C189.002 184.489 189.182 183.936 189.402 183.8C189.622 183.664 189.802 183.203 189.802 182.776C189.802 182.349 189.982 182 190.202 182C190.422 182 190.602 181.46 190.602 180.8C190.602 180.14 190.782 179.6 191.002 179.6C191.222 179.6 191.402 179.238 191.402 178.795C191.402 178.352 191.61 177.587 191.864 177.095C192.858 175.174 193.002 174.784 193.002 174.029C193.002 173.599 193.182 173.136 193.402 173C193.622 172.864 193.802 172.313 193.802 171.776C193.802 171.239 193.982 170.8 194.202 170.8C194.422 170.8 194.602 170.26 194.602 169.6C194.602 168.94 194.782 168.4 195.002 168.4C195.222 168.4 195.402 168.038 195.402 167.595C195.402 166.817 195.544 166.431 196.54 164.505C196.794 164.013 197.002 163.259 197.002 162.829C197.002 162.399 197.182 161.936 197.402 161.8C197.622 161.664 197.802 161.113 197.802 160.576C197.802 160.039 197.982 159.6 198.202 159.6C198.422 159.6 198.602 159.06 198.602 158.4C198.602 157.74 198.782 157.2 199.002 157.2C199.222 157.2 199.402 156.66 199.402 156C199.402 155.34 199.582 154.8 199.802 154.8C200.022 154.8 200.202 154.528 200.202 154.195C200.202 152.388 202.714 150 204.615 150C205.58 150 207.402 151.688 207.402 152.582C207.402 152.922 207.582 153.2 207.802 153.2C208.022 153.2 208.202 153.56 208.202 154C208.202 154.44 208.022 154.8 207.802 154.8C207.582 154.8 207.402 155.7 207.402 156.8C207.402 157.9 207.222 158.8 207.002 158.8C206.782 158.8 206.602 159.7 206.602 160.8C206.602 161.9 206.422 162.8 206.202 162.8C205.982 162.8 205.802 163.689 205.802 164.776C205.802 165.863 205.622 166.864 205.402 167C205.182 167.136 205.002 168.036 205.002 169C205.002 169.964 204.822 170.864 204.602 171C204.382 171.136 204.202 172.036 204.202 173C204.202 173.964 204.022 174.864 203.802 175C203.582 175.136 203.402 176.036 203.402 177C203.402 177.964 203.222 178.864 203.002 179C202.782 179.136 202.602 180.227 202.602 181.424C202.602 182.621 202.422 183.6 202.202 183.6C201.982 183.6 201.802 184.32 201.802 185.2C201.802 186.08 201.622 186.8 201.402 186.8C201.182 186.8 201.002 187.329 201.002 187.976C201.002 188.623 200.822 189.264 200.602 189.4C200.382 189.536 200.202 190.267 200.202 191.024C200.202 191.781 200.022 192.4 199.802 192.4C199.582 192.4 199.402 192.94 199.402 193.6C199.402 194.26 199.222 194.8 199.002 194.8C198.782 194.8 198.602 195.239 198.602 195.776C198.602 196.313 198.422 196.864 198.202 197C197.982 197.136 197.802 197.599 197.802 198.029C197.802 198.459 197.634 199.123 197.428 199.505C197.223 199.887 196.819 200.785 196.531 201.5C196.242 202.215 195.871 202.8 195.704 202.8C195.538 202.8 195.403 203.025 195.405 203.3C195.409 203.933 192.114 210.554 191.706 210.733C191.539 210.807 191.402 211.129 191.402 211.45C191.402 211.771 191.042 212.42 190.602 212.892C190.162 213.364 189.802 213.987 189.802 214.275C189.802 214.564 189.622 214.8 189.402 214.8C189.182 214.8 189.002 215.12 189.002 215.512C189.002 215.903 188.642 216.483 188.202 216.8C187.762 217.117 187.402 217.609 187.402 217.892C187.402 218.175 186.862 218.972 186.202 219.663C185.542 220.354 185.002 221.072 185.002 221.259C185.002 221.446 184.282 222.341 183.402 223.248C182.522 224.155 181.802 225.067 181.802 225.275C181.802 225.484 180.722 226.724 179.402 228.032C178.082 229.34 177.002 230.561 177.002 230.745C177.002 230.93 176.462 231.646 175.802 232.337C175.142 233.028 174.602 233.825 174.602 234.108C174.602 234.391 174.242 234.883 173.802 235.2C173.362 235.517 173.002 236.057 173.002 236.4C173.002 236.743 172.642 237.283 172.202 237.6C171.762 237.917 171.402 238.414 171.402 238.705C171.402 238.996 171.042 239.62 170.602 240.092C170.162 240.564 169.802 241.187 169.802 241.475C169.802 241.764 169.622 242 169.402 242C168.795 242 168.924 243.979 169.573 244.629C169.888 244.943 170.428 245.2 170.773 245.2C171.119 245.2 171.402 245.38 171.402 245.6C171.402 247.114 175.351 244.836 175.389 243.3C175.396 243.025 175.582 242.8 175.802 242.8C176.022 242.8 176.202 242.44 176.202 242C176.202 241.56 176.354 241.2 176.539 241.2C176.725 241.2 177.288 240.4 177.791 239.422C178.294 238.444 179.335 236.959 180.105 236.122C180.875 235.285 181.976 233.976 182.553 233.213C183.13 232.451 184.457 230.947 185.502 229.873C186.547 228.798 187.402 227.732 187.402 227.503C187.402 227.274 187.897 226.609 188.502 226.026C189.107 225.443 189.857 224.478 190.17 223.883C190.482 223.287 190.887 222.8 191.07 222.8C191.252 222.8 191.402 222.564 191.402 222.275C191.402 221.987 191.762 221.364 192.202 220.892C192.642 220.42 193.002 219.835 193.002 219.593C193.002 219.351 193.21 219.281 193.464 219.438C193.729 219.602 193.818 219.549 193.672 219.314C193.533 219.089 193.865 218.386 194.41 217.752C194.955 217.118 195.401 216.375 195.402 216.1C195.402 215.825 195.582 215.6 195.802 215.6C196.022 215.6 196.202 215.366 196.202 215.08C196.202 214.344 197.143 212.407 197.502 212.403C197.667 212.401 197.806 212.175 197.811 211.9C197.816 211.625 198.172 210.95 198.602 210.4C199.032 209.85 199.388 209.102 199.393 208.738C199.403 207.99 201.042 204.671 201.502 204.467C201.667 204.393 201.802 203.808 201.802 203.167C201.802 202.525 201.982 202 202.202 202C202.422 202 202.602 201.64 202.602 201.2C202.602 200.76 202.782 200.4 203.002 200.4C203.222 200.4 203.402 199.86 203.402 199.2C203.402 198.54 203.582 198 203.802 198C204.022 198 204.202 197.46 204.202 196.8C204.202 196.14 204.382 195.6 204.602 195.6C204.822 195.6 205.002 195.06 205.002 194.4C205.002 193.74 205.182 193.2 205.402 193.2C205.622 193.2 205.802 192.671 205.802 192.024C205.802 191.377 205.982 190.736 206.202 190.6C206.422 190.464 206.602 189.744 206.602 189C206.602 188.256 206.782 187.536 207.002 187.4C207.222 187.264 207.402 186.353 207.402 185.376C207.402 184.399 207.582 183.6 207.802 183.6C208.022 183.6 208.202 182.711 208.202 181.624C208.202 180.537 208.382 179.536 208.602 179.4C208.822 179.264 209.002 178.364 209.002 177.4C209.002 176.436 209.182 175.536 209.402 175.4C209.622 175.264 209.802 174.364 209.802 173.4C209.802 172.436 209.982 171.536 210.202 171.4C210.422 171.264 210.602 170.274 210.602 169.2C210.602 168.126 210.782 167.136 211.002 167C211.222 166.864 211.402 165.863 211.402 164.776C211.402 163.689 211.582 162.8 211.802 162.8C212.022 162.8 212.202 161.9 212.202 160.8C212.202 159.7 212.382 158.8 212.602 158.8C212.844 158.8 213.002 157.067 213.002 154.4C213.002 151.733 212.844 150 212.602 150C212.382 150 212.202 149.724 212.202 149.387C212.202 148.709 209.663 146 209.027 146C208.807 146 207.985 145.64 207.202 145.2C205.695 144.354 203.217 144.128 202.802 144.8ZM96.2018 156.8C96.2018 157.037 94.7558 157.2 92.6628 157.2C88.2998 157.2 86.6018 157.874 86.6018 159.606C86.6018 160.237 86.7818 160.864 87.0018 161C87.2218 161.136 87.4018 161.777 87.4018 162.424C87.4018 163.071 87.5818 163.6 87.8018 163.6C88.0218 163.6 88.2018 164.14 88.2018 164.8C88.2018 165.46 88.3368 166.001 88.5018 166.003C88.8938 166.007 89.8018 167.973 89.8018 168.818C89.8018 169.18 90.1618 169.802 90.6018 170.2C91.0418 170.598 91.4018 171.256 91.4018 171.662C91.4018 172.068 91.5818 172.4 91.8018 172.4C92.0218 172.4 92.2018 172.643 92.2018 172.941C92.2018 173.238 92.7418 174.046 93.4018 174.737C94.0618 175.428 94.6018 176.136 94.6018 176.311C94.6018 176.82 98.3788 180.4 98.9158 180.4C99.1828 180.4 99.4018 180.58 99.4018 180.8C99.4018 181.02 99.6378 181.2 99.9268 181.2C100.215 181.2 100.838 181.56 101.31 182C101.782 182.44 102.446 182.8 102.785 182.8C103.124 182.8 103.402 182.98 103.402 183.2C103.402 183.42 103.841 183.6 104.378 183.6C104.915 183.6 105.466 183.78 105.602 184C105.738 184.22 106.379 184.4 107.026 184.4C107.673 184.4 108.202 184.58 108.202 184.8C108.202 185.049 110.469 185.2 114.202 185.2C117.935 185.2 120.202 185.049 120.202 184.8C120.202 184.58 120.845 184.4 121.631 184.4C124.003 184.4 124.281 183.793 124.061 179.103C123.83 174.204 123.448 171.6 122.96 171.6C122.763 171.6 122.602 171.257 122.602 170.838C122.602 169.931 120.994 166.8 120.528 166.8C120.349 166.8 120.202 166.542 120.202 166.226C120.202 165.507 115.937 161.2 115.225 161.2C114.936 161.2 114.479 160.934 114.209 160.608C113.563 159.831 111.473 158.8 110.541 158.8C110.134 158.8 109.802 158.639 109.802 158.442C109.802 158.064 107.918 157.702 104.102 157.344C102.837 157.226 101.802 156.965 101.802 156.764C101.802 156.564 100.542 156.4 99.0018 156.4C97.4018 156.4 96.2018 156.571 96.2018 156.8ZM153.002 156.8C153.002 157.022 151.934 157.2 150.597 157.2C149.274 157.2 147.879 157.359 147.497 157.553C147.115 157.748 146.352 158.082 145.802 158.297C145.252 158.511 144.02 159.072 143.064 159.543C142.108 160.014 141.113 160.4 140.853 160.4C140.592 160.4 140.119 160.76 139.802 161.2C139.485 161.64 139.032 162 138.795 162C138.246 162 135.402 164.896 135.402 165.455C135.402 165.686 135.042 166.202 134.602 166.6C134.162 166.998 133.802 167.566 133.802 167.862C133.802 168.158 133.622 168.4 133.402 168.4C133.182 168.4 133.002 168.839 133.002 169.376C133.002 169.913 132.822 170.464 132.602 170.6C132.382 170.736 132.202 171.197 132.202 171.624C132.202 172.051 132.022 172.4 131.802 172.4C131.582 172.4 131.402 172.929 131.402 173.576C131.402 174.223 131.222 174.864 131.002 175C130.777 175.139 130.603 177.034 130.605 179.324C130.609 183.751 130.999 184.4 133.658 184.4C134.151 184.4 134.666 184.58 134.802 184.8C134.949 185.038 137.465 185.2 141.002 185.2C144.539 185.2 147.055 185.038 147.202 184.8C147.338 184.58 147.979 184.4 148.626 184.4C149.273 184.4 149.802 184.22 149.802 184C149.802 183.78 150.145 183.6 150.564 183.6C151.471 183.6 154.602 181.992 154.602 181.526C154.602 181.347 154.866 181.2 155.188 181.2C155.51 181.2 155.967 180.84 156.202 180.4C156.437 179.96 156.822 179.6 157.056 179.6C157.548 179.6 161.002 176.04 161.002 175.533C161.002 175.346 161.542 174.628 162.202 173.937C162.862 173.246 163.402 172.382 163.402 172.016C163.402 171.65 163.762 170.964 164.202 170.492C164.642 170.02 165.002 169.356 165.002 169.017C165.002 168.678 165.182 168.4 165.402 168.4C165.622 168.4 165.802 168.051 165.802 167.624C165.802 167.197 165.982 166.736 166.202 166.6C166.422 166.464 166.602 165.913 166.602 165.376C166.602 164.839 166.782 164.4 167.002 164.4C167.222 164.4 167.402 163.781 167.402 163.024C167.402 162.267 167.582 161.536 167.802 161.4C168.74 160.82 168.262 158 167.226 158C166.689 158 166.138 157.82 166.002 157.6C165.866 157.38 164.336 157.2 162.602 157.2C160.868 157.2 159.338 157.02 159.202 156.8C159.066 156.58 157.615 156.4 155.978 156.4C154.261 156.4 153.002 156.569 153.002 156.8ZM103.402 162.4C103.402 162.62 104.122 162.8 105.002 162.8C105.882 162.8 106.602 162.98 106.602 163.2C106.602 163.42 107.054 163.6 107.607 163.6C108.795 163.6 109.903 164.193 111.532 165.7C112.186 166.305 112.887 166.8 113.09 166.8C113.56 166.8 114.602 167.831 114.602 168.296C114.602 168.49 114.917 168.998 115.302 169.425C116.199 170.419 117.802 173.505 117.802 174.238C117.802 174.547 117.982 174.8 118.202 174.8C118.422 174.8 118.602 175.599 118.602 176.576C118.602 177.553 118.782 178.464 119.002 178.6C119.935 179.177 119.268 179.6 117.426 179.6C116.339 179.6 115.338 179.78 115.202 180C115.066 180.22 114.436 180.4 113.802 180.4C113.168 180.4 112.538 180.22 112.402 180C112.266 179.78 111.456 179.6 110.602 179.6C109.748 179.6 108.938 179.42 108.802 179.2C108.666 178.98 108.121 178.8 107.591 178.8C105.765 178.8 97.8048 172.444 97.8008 170.983C97.8008 170.772 97.2608 169.97 96.6018 169.2C95.9428 168.43 95.4028 167.558 95.4028 167.262C95.4018 166.966 95.0608 166.244 94.6428 165.658C93.9858 164.735 93.6088 163.306 93.7578 162.3C93.8258 161.834 103.402 161.933 103.402 162.4ZM161.802 162.376C161.802 162.583 161.622 162.864 161.402 163C161.182 163.136 161.002 163.687 161.002 164.224C161.002 164.761 160.822 165.2 160.602 165.2C160.382 165.2 160.202 165.56 160.202 166C160.202 166.44 160.022 166.8 159.802 166.8C159.582 166.8 159.402 167.132 159.402 167.538C159.402 167.944 159.042 168.602 158.602 169C158.162 169.398 157.802 169.966 157.802 170.262C157.802 170.558 157.622 170.8 157.402 170.8C157.182 170.8 157.002 171.064 157.002 171.386C157.002 171.708 156.642 172.165 156.202 172.4C155.762 172.635 155.402 173.015 155.402 173.243C155.402 173.735 154.398 174.799 153.931 174.802C153.75 174.803 153.062 175.298 152.402 175.902C150.421 177.715 146.314 179.6 144.346 179.6C143.387 179.6 142.602 179.78 142.602 180C142.602 180.22 142.062 180.4 141.402 180.4C140.742 180.4 140.202 180.22 140.202 180C140.202 179.78 139.302 179.6 138.202 179.6H136.202V177.6C136.202 176.5 136.382 175.6 136.602 175.6C136.822 175.6 137.002 175.186 137.002 174.68C137.002 173.626 137.855 171.608 138.302 171.603C138.467 171.601 138.602 171.334 138.602 171.01C138.602 169.421 145.525 163.6 147.414 163.6C147.847 163.6 148.202 163.42 148.202 163.2C148.202 162.98 149.001 162.8 149.978 162.8C150.955 162.8 151.866 162.62 152.002 162.4C152.32 161.886 161.802 161.863 161.802 162.376Z" fill="white"></path> <path fill-rule="evenodd" clip-rule="evenodd" d="M216.203 2.31239C216.203 3.76539 216.395 4.36239 217.003 4.80039C218.105 5.59539 218.27 24.4004 217.174 24.4004C215.485 24.4004 214.758 27.2924 216.134 28.5384C217.115 29.4264 223.564 29.4964 224.432 28.6294C225.346 27.7144 225.183 24.7724 224.203 24.5164C223.471 24.3244 223.403 23.9704 223.403 20.3534C223.403 17.9844 223.243 16.4004 223.003 16.4004C222.75 16.4004 222.603 13.4674 222.603 8.40039V0.400391H219.403H216.203V2.31239ZM153.678 1.77539C152.427 2.72439 152.884 5.76339 154.303 5.92739L155.403 6.05339V12.8034C155.403 16.8714 155.244 19.6514 155.003 19.8004C154.783 19.9364 154.603 21.0274 154.603 22.2244C154.603 24.1334 154.505 24.4004 153.803 24.4004C153.11 24.4004 153.003 24.6674 153.003 26.4004V28.4004H155.003C156.164 28.4004 157.003 28.5814 157.003 28.8304C157.003 29.1194 158.025 29.1914 160.103 29.0494C164.973 28.7154 167.403 28.3534 167.403 27.9614C167.403 27.7634 167.748 27.6004 168.169 27.6004C168.636 27.6004 169.144 27.1314 169.467 26.4004C169.759 25.7404 170.134 25.2004 170.301 25.2004C170.467 25.2004 170.603 23.0404 170.603 20.4004C170.603 17.4674 170.447 15.6004 170.203 15.6004C169.983 15.6004 169.803 15.2554 169.803 14.8334C169.803 14.4124 169.578 13.9844 169.303 13.8834C168.903 13.7374 168.903 13.5944 169.303 13.1704C169.578 12.8794 169.803 12.1474 169.803 11.5444C169.803 10.9414 169.983 10.3364 170.203 10.2004C170.423 10.0644 170.603 9.24339 170.603 8.37639C170.603 7.50939 170.423 6.80039 170.203 6.80039C169.983 6.80039 169.803 6.34439 169.803 5.78739C169.803 4.20239 167.368 2.00039 165.616 2.00039C164.839 2.00039 164.203 1.82039 164.203 1.60039C164.203 0.949388 154.556 1.10939 153.678 1.77539ZM164.244 7.40039C165.371 9.33139 164.882 10.8004 163.112 10.8004C162.7 10.8004 162.159 11.0044 161.909 11.2544C161.083 12.0804 160.203 10.6574 160.203 8.49539C160.203 5.53139 162.75 4.84039 164.244 7.40039ZM175.667 8.56039C174.642 9.52939 173.803 10.6094 173.803 10.9604C173.803 11.3124 173.623 11.6004 173.403 11.6004C173.183 11.6004 173.003 12.3204 173.003 13.2004C173.003 14.0804 172.823 14.8004 172.603 14.8004C172.368 14.8004 172.203 16.1924 172.203 18.1764C172.203 20.0334 172.383 21.6644 172.603 21.8004C172.823 21.9364 173.003 22.5774 173.003 23.2244C173.003 23.8714 173.183 24.4004 173.403 24.4004C173.623 24.4004 173.803 24.7604 173.803 25.2004C173.803 25.6404 173.983 26.0004 174.203 26.0004C174.423 26.0004 174.603 26.2764 174.603 26.6134C174.603 26.9494 174.918 27.3454 175.303 27.4924C175.688 27.6394 176.352 28.0844 176.778 28.4804C177.643 29.2834 183.403 29.5614 183.403 28.8004C183.403 28.5804 183.681 28.4004 184.021 28.4004C184.821 28.4004 186.603 26.6184 186.603 25.8184C186.603 25.4784 186.783 25.2004 187.003 25.2004C187.223 25.2004 187.403 24.4804 187.403 23.6004C187.403 22.7204 187.583 22.0004 187.803 22.0004C188.04 22.0004 188.203 20.5334 188.203 18.4004C188.203 16.2674 188.04 14.8004 187.803 14.8004C187.583 14.8004 187.403 14.0804 187.403 13.2004C187.403 12.3204 187.223 11.6004 187.003 11.6004C186.783 11.6004 186.603 11.2404 186.603 10.8004C186.603 10.3604 186.466 10.0004 186.298 10.0004C186.13 10.0004 185.815 9.59539 185.598 9.10039C185.381 8.60539 184.798 8.02239 184.303 7.80539C183.808 7.58839 183.403 7.27339 183.403 7.10539C183.403 5.75939 177.446 6.87939 175.667 8.56039ZM188.68 7.42339C187.669 8.56939 188.232 11.3804 189.503 11.5274C190.492 11.6404 190.603 11.8104 190.603 13.2034C190.603 14.0554 190.783 14.8644 191.003 15.0004C191.223 15.1364 191.403 15.9464 191.403 16.8004C191.403 17.6544 191.583 18.4644 191.803 18.6004C192.023 18.7364 192.203 19.6364 192.203 20.6004C192.203 21.5644 192.383 22.4644 192.603 22.6004C192.823 22.7364 193.003 23.5574 193.003 24.4244C193.003 25.2914 193.183 26.0004 193.403 26.0004C193.623 26.0004 193.803 26.4634 193.803 27.0294C193.803 28.5034 194.702 29.2004 196.603 29.2004C198.504 29.2004 199.403 28.5034 199.403 27.0294C199.403 26.4634 199.583 26.0004 199.803 26.0004C200.023 26.0004 200.203 25.2804 200.203 24.4004C200.203 23.5204 200.383 22.8004 200.603 22.8004C200.823 22.8004 201.003 22.1574 201.003 21.3714C201.003 20.1174 201.705 18.8004 202.374 18.8004C202.5 18.8004 202.603 19.5204 202.603 20.4004C202.603 21.2804 202.783 22.0004 203.003 22.0004C203.223 22.0004 203.403 22.6194 203.403 23.3764C203.403 24.1334 203.583 24.8644 203.803 25.0004C204.023 25.1364 204.203 25.6994 204.203 26.2524C204.203 27.9544 205.094 28.4524 207.894 28.3194L210.403 28.2004L210.525 26.3004C210.592 25.2554 210.817 24.4004 211.025 24.4004C211.233 24.4004 211.403 23.5794 211.403 22.5764C211.403 21.4634 211.559 20.8494 211.803 21.0004C212.05 21.1524 212.203 20.4714 212.203 19.2244C212.203 18.1114 212.383 17.2004 212.603 17.2004C212.823 17.2004 213.003 16.4804 213.003 15.6004C213.003 14.7204 213.183 14.0004 213.403 14.0004C213.623 14.0004 213.803 13.4604 213.803 12.8004C213.803 11.8674 213.981 11.6004 214.603 11.6004C215.051 11.6004 215.403 11.3334 215.403 10.9954C215.403 10.6624 215.628 10.0264 215.903 9.58239C216.253 9.01839 216.274 8.68939 215.974 8.48839C215.738 8.33039 215.423 7.87039 215.273 7.46639C214.991 6.70339 213 6.69039 208.303 7.42039C206.304 7.73039 205.76 10.0164 207.403 11.2004C208.227 11.7944 208.542 14.0004 207.803 14.0004C207.583 14.0004 207.403 14.7094 207.403 15.5764C207.403 16.4434 207.223 17.2644 207.003 17.4004C206.783 17.5364 206.603 17.2874 206.603 16.8474C206.603 16.4074 206.423 15.9364 206.203 15.8004C205.983 15.6644 205.803 15.0234 205.803 14.3764C205.803 13.7294 205.623 13.2004 205.403 13.2004C205.183 13.2004 205.003 12.6604 205.003 12.0004C205.003 11.3404 204.823 10.8004 204.603 10.8004C204.383 10.8004 204.203 10.1834 204.203 9.42939C204.203 7.74739 202.2 6.39739 201.045 7.30139C199.673 8.37339 199.403 8.78039 199.403 9.77139C199.403 10.3374 199.223 10.8004 199.003 10.8004C198.783 10.8004 198.603 11.4194 198.603 12.1764C198.603 12.9334 198.423 13.6644 198.203 13.8004C197.983 13.9364 197.803 14.5574 197.803 15.1814C197.803 16.2414 196.979 17.0434 196.442 16.5064C196.311 16.3744 196.203 15.3974 196.203 14.3334C196.203 13.2704 196.023 12.4004 195.803 12.4004C195.583 12.4004 195.403 12.2204 195.403 12.0004C195.403 11.7804 195.763 11.6004 196.203 11.6004C197.298 11.6004 197.379 8.17439 196.303 7.35739C195.287 6.58639 189.374 6.63739 188.68 7.42339ZM181.621 12.5824C183.807 14.7684 182.732 24.4004 180.302 24.4004C179.556 24.4004 178.603 23.4074 178.603 22.6294C178.603 22.2834 178.423 22.0004 178.203 22.0004C177.983 22.0004 177.803 21.2014 177.803 20.2244C177.803 19.2474 177.623 18.3364 177.403 18.2004C177.183 18.0644 177.003 17.6034 177.003 17.1764C177.003 16.7494 177.183 16.4004 177.403 16.4004C177.623 16.4004 177.803 15.7644 177.803 14.9864C177.803 12.2534 179.944 10.9054 181.621 12.5824ZM164.203 17.2004C164.203 17.6404 164.383 18.0004 164.603 18.0004C164.823 18.0004 165.003 18.9984 165.003 20.2184C165.003 22.9854 163.859 24.4004 161.621 24.4004H160.203V20.4004V16.4004H162.203C163.936 16.4004 164.203 16.5074 164.203 17.2004ZM146.603 52.0004C146.603 52.2204 146.243 52.4004 145.803 52.4004C145.27 52.4004 145.003 52.6674 145.003 53.2004C145.003 53.6404 144.823 54.0004 144.603 54.0004C144.374 54.0004 144.203 55.2004 144.203 56.8004C144.203 59.5414 144.181 59.6004 143.174 59.6004C140.939 59.6004 140.01 63.2314 142.168 63.5364C143.805 63.7684 145.251 67.5954 143.703 67.5994C143.538 67.6004 143.403 69.9404 143.403 72.8004C143.403 77.7334 143.362 78.0004 142.603 78.0004C141.91 78.0004 141.803 78.2674 141.803 80.0004V82.0004H147.003H152.203V80.4804C152.203 78.8244 151.645 78.0004 150.523 78.0004C149.867 78.0004 149.803 77.5414 149.803 72.8004C149.803 69.9404 149.668 67.5994 149.503 67.5994C148.99 67.5974 149.107 64.6394 149.64 64.1054C149.918 63.8274 150.799 63.6004 151.596 63.6004H153.047L152.925 61.7004L152.803 59.8004L150.877 59.6774C149.558 59.5934 149.023 59.4044 149.177 59.0774C149.301 58.8154 149.514 58.2854 149.649 57.9004C149.825 57.4034 150.328 57.2004 151.382 57.2004C153.96 57.2004 155.012 52.7624 152.503 52.4734C151.898 52.4044 151.403 52.1794 151.403 51.9734C151.403 51.7684 150.323 51.6004 149.003 51.6004C147.67 51.6004 146.603 51.7784 146.603 52.0004ZM219.903 52.9984C219.142 53.8634 219.302 55.7854 220.203 56.6004C220.964 57.2884 221.003 57.8324 221.003 67.6624C221.003 77.7334 220.982 78.0004 220.203 78.0004C219.52 78.0004 219.403 78.2674 219.403 79.8294C219.403 82.4984 219.892 82.8004 224.203 82.8004C228.514 82.8004 229.003 82.4984 229.003 79.8294C229.003 78.2674 228.886 78.0004 228.203 78.0004C227.429 78.0004 227.047 74.3014 227.387 70.1004C227.427 69.6054 227.267 69.2004 227.032 69.2004C226.74 69.2004 226.603 66.5074 226.603 60.8004V52.4004L223.503 52.4154C221.342 52.4264 220.251 52.6034 219.903 52.9984ZM242.603 54.3124C242.603 55.7654 242.795 56.3624 243.403 56.8004C244.23 57.3964 244.712 78.0004 243.899 78.0004C243.258 78.0004 242.524 79.6814 242.97 80.1274C243.208 80.3654 243.403 80.8844 243.403 81.2804C243.403 81.9254 243.818 82.0004 247.403 82.0004H251.403V80.0004C251.403 78.2674 251.296 78.0004 250.603 78.0004C249.555 78.0004 249.344 65.2024 250.374 64.1714C251.107 63.4394 252.499 63.4394 253.232 64.1714C254.262 65.2024 254.051 78.0004 253.003 78.0004C252.31 78.0004 252.203 78.2674 252.203 80.0004V82.0004H256.603H261.003V80.0004C261.003 78.2674 260.896 78.0004 260.203 78.0004C259.434 78.0004 259.403 77.7334 259.403 71.2244C259.403 67.1374 259.244 64.3494 259.003 64.2004C258.783 64.0644 258.603 63.3994 258.603 62.7234C258.603 61.2904 256.927 59.6014 255.503 59.6004C255.008 59.6004 254.603 59.4204 254.603 59.2004C254.603 58.9804 253.804 58.8004 252.827 58.8004C251.85 58.8004 250.939 58.9804 250.803 59.2004C250.148 60.2594 249.803 59.3204 249.803 56.4804C249.803 52.5614 249.642 52.4004 245.723 52.4004H242.603V54.3124ZM161.803 56.0004C161.803 57.1004 161.983 58.0004 162.203 58.0004C162.445 58.0004 162.603 59.7334 162.603 62.4004C162.603 64.8204 162.749 66.8004 162.927 66.8004C163.667 66.8004 163.463 76.8524 162.709 77.5464C159.582 80.4234 160.712 82.0004 165.899 82.0004H169.803V80.0004C169.803 78.2674 169.696 78.0004 169.003 78.0004C168.251 78.0004 168.203 77.7334 168.203 73.6004V69.2004H171.723C176.125 69.2004 176.203 69.2764 176.203 73.5204C176.203 76.7374 176.152 76.9274 175.003 78.0004C172.186 80.6324 173.613 82.0004 179.174 82.0004H183.403V80.0004C183.403 78.4484 183.262 78.0004 182.774 78.0004C181.125 78.0004 181.003 77.2724 181.003 67.4554V58.0534L182.103 57.9274C183.11 57.8114 183.213 57.6404 183.325 55.9004L183.447 54.0004H179.025H174.603V56.0004C174.603 57.7334 174.71 58.0004 175.403 58.0004C176.136 58.0004 176.203 58.2674 176.203 61.2004V64.4004H172.203H168.203V61.2004C168.203 58.2674 168.27 58.0004 169.003 58.0004C169.696 58.0004 169.803 57.7334 169.803 56.0004V54.0004H165.803H161.803V56.0004ZM232.703 55.3984C232.428 55.7114 232.203 56.7844 232.203 57.7834C232.203 59.5004 232.142 59.6004 231.099 59.6004C229.56 59.6004 228.845 60.8054 229.502 62.2894C230.141 63.7344 230.795 64.4004 231.574 64.4004C232.125 64.4004 232.203 65.3944 232.203 72.4004C232.203 77.4674 232.35 80.4004 232.603 80.4004C232.823 80.4004 233.003 80.6834 233.003 81.0294C233.003 82.4794 234.033 82.8354 237.89 82.7154L241.603 82.6004L241.723 80.3004L241.843 78.0004H240.303C237.886 78.0004 237.803 77.7594 237.803 70.7204V64.4004H238.832C240.349 64.4004 241.003 63.5054 241.003 61.4294V59.6004H239.403H237.803L237.79 57.9004C237.769 55.0834 234.428 53.4404 232.703 55.3984ZM131.403 59.2004C131.403 59.4204 130.767 59.6004 129.99 59.6004C128.47 59.6004 125.803 61.7584 125.803 62.9874C125.803 63.3244 125.623 63.6004 125.403 63.6004C125.183 63.6004 125.003 63.9604 125.003 64.4004C125.003 64.8404 124.823 65.2004 124.603 65.2004C124.355 65.2004 124.203 67.3334 124.203 70.8004C124.203 74.2674 124.355 76.4004 124.603 76.4004C124.823 76.4004 125.003 76.9404 125.003 77.6004C125.003 78.2604 125.183 78.8004 125.403 78.8004C125.623 78.8004 125.803 79.0784 125.803 79.4184C125.803 80.2184 127.585 82.0004 128.385 82.0004C128.725 82.0004 129.003 82.1804 129.003 82.4004C129.003 82.6334 130.336 82.8004 132.203 82.8004C134.07 82.8004 135.403 82.6334 135.403 82.4004C135.403 82.1804 135.681 82.0004 136.021 82.0004C136.821 82.0004 138.603 80.2184 138.603 79.4184C138.603 79.0784 138.783 78.8004 139.003 78.8004C139.223 78.8004 139.403 78.4514 139.403 78.0244C139.403 77.5974 139.583 77.1364 139.803 77.0004C140.038 76.8554 140.203 74.5294 140.203 71.3764C140.203 68.0594 140.05 66.0004 139.803 66.0004C139.583 66.0004 139.403 65.4604 139.403 64.8004C139.403 64.1404 139.223 63.6004 139.003 63.6004C138.783 63.6004 138.603 63.3244 138.603 62.9874C138.603 62.0794 136.155 59.8214 135.003 59.6654C134.453 59.5914 133.832 59.3664 133.623 59.1654C133.111 58.6734 131.403 58.6994 131.403 59.2004ZM191.403 59.2004C191.403 59.4204 190.935 59.6004 190.363 59.6004C189.196 59.6004 186.603 61.9174 186.603 62.9604C186.603 63.3124 186.423 63.6004 186.203 63.6004C185.983 63.6004 185.803 64.1404 185.803 64.8004C185.803 65.4604 185.623 66.0004 185.403 66.0004C185.158 66.0004 185.003 67.9254 185.003 70.9764C185.003 73.8634 185.171 76.0574 185.403 76.2004C185.623 76.3364 185.803 76.9774 185.803 77.6244C185.803 78.2714 185.983 78.8004 186.203 78.8004C186.423 78.8004 186.603 79.0454 186.603 79.3454C186.603 80.4254 188.652 82.0004 190.058 82.0004C190.798 82.0004 191.403 82.1804 191.403 82.4004C191.403 82.6204 192.123 82.8004 193.003 82.8004C193.883 82.8004 194.603 82.6204 194.603 82.4004C194.603 82.1804 195.188 82.0004 195.903 82.0004C197.352 81.9994 199.403 80.5074 199.403 79.4534C199.403 79.0944 199.592 78.8004 199.823 78.8004C200.081 78.8004 200.197 77.9164 200.123 76.5004L200.003 74.2004L197.803 74.0894C195.621 73.9784 194.603 74.7484 194.603 76.5084C194.603 77.0104 193.541 78.0004 193.003 78.0004C192.341 78.0004 191.403 76.9614 191.403 76.2294C191.403 75.8834 191.223 75.6004 191.003 75.6004C190.783 75.6004 190.603 75.0604 190.603 74.4004V73.2004H194.323C199.981 73.2004 200.196 73.0294 200.2 68.5244C200.202 66.5014 200.023 64.7364 199.803 64.6004C199.583 64.4644 199.403 64.0034 199.403 63.5764C199.403 63.1494 199.267 62.8004 199.101 62.8004C198.934 62.8004 198.579 62.3054 198.31 61.7004C198.036 61.0814 197.249 60.3704 196.513 60.0744C195.792 59.7844 194.89 59.3794 194.508 59.1744C193.585 58.6774 191.403 58.6954 191.403 59.2004ZM206.603 60.0004C206.603 60.2204 206.331 60.4004 205.998 60.4004C204.709 60.4004 202.603 61.9954 202.603 62.9714C202.603 63.3174 202.423 63.6004 202.203 63.6004C201.589 63.6004 201.728 66.3824 202.374 67.0294C203.051 67.7054 206.603 67.8174 206.603 67.1624C206.603 66.9214 206.975 66.2014 207.43 65.5624C208.454 64.1244 210.603 63.8794 210.603 65.2004C210.603 65.6404 210.783 66.0004 211.003 66.0004C211.223 66.0004 211.403 66.5404 211.403 67.2004C211.403 68.3734 211.359 68.4004 209.403 68.4004C208.303 68.4004 207.403 68.5804 207.403 68.8004C207.403 69.0204 206.947 69.2004 206.39 69.2004C205.263 69.2004 202.603 71.5794 202.603 72.5874C202.603 72.9244 202.423 73.2004 202.203 73.2004C201.707 73.2004 201.668 78.1464 202.156 79.1054C202.351 79.4874 202.741 80.2954 203.024 80.9004C203.31 81.5124 203.863 82.0004 204.271 82.0004C204.673 82.0004 205.003 82.1804 205.003 82.4004C205.003 82.6224 206.07 82.8004 207.403 82.8004C208.736 82.8004 209.803 82.6224 209.803 82.4004C209.803 82.1804 210.148 82.0004 210.57 82.0004C210.991 82.0004 211.441 81.7754 211.57 81.5004C211.756 81.1004 211.85 81.1004 212.036 81.5004C212.194 81.8384 213.294 82.0004 215.436 82.0004H218.603V80.0004C218.603 78.2884 218.491 78.0004 217.828 78.0004C217.122 78.0004 217.034 77.6154 216.842 73.7004C216.503 66.7984 216.164 63.6004 215.77 63.6004C215.568 63.6004 215.403 63.3224 215.403 62.9824C215.403 62.1824 213.621 60.4004 212.821 60.4004C212.481 60.4004 212.203 60.2204 212.203 60.0004C212.203 59.7714 211.003 59.6004 209.403 59.6004C207.803 59.6004 206.603 59.7714 206.603 60.0004ZM133.687 65.2004C133.802 65.6404 134.055 66.0004 134.25 66.0004C134.444 66.0004 134.603 66.7744 134.603 67.7204C134.603 68.6664 134.819 69.6564 135.083 69.9204C135.456 70.2934 135.456 70.5074 135.083 70.8804C134.819 71.1444 134.603 72.4124 134.603 73.6984C134.603 76.0544 133.502 78.0004 132.168 78.0004C131.269 78.0004 129.804 75.8324 129.803 74.5004C129.803 73.7854 129.623 73.2004 129.403 73.2004C129.174 73.2004 129.003 72.0004 129.003 70.4004C129.003 68.8004 129.174 67.6004 129.403 67.6004C129.623 67.6004 129.803 67.3664 129.803 67.0804C129.803 64.7634 133.149 63.1444 133.687 65.2004ZM194.032 64.9714C194.346 65.2864 194.603 66.1864 194.603 66.9714V68.4004H192.603C190.647 68.4004 190.603 68.3734 190.603 67.2004C190.603 66.5404 190.783 66.0004 191.003 66.0004C191.223 66.0004 191.403 65.6404 191.403 65.2004C191.403 64.2314 193.14 64.0804 194.032 64.9714ZM211.403 74.3284C211.403 76.4304 208.536 77.9904 207.174 76.6294C205.888 75.3424 207.554 73.2634 209.903 73.2244C211.287 73.2024 211.403 73.2874 211.403 74.3284Z" fill="#045B04"></path> <path fill-rule="evenodd" clip-rule="evenodd" d="M46.7734 67.6008C46.7734 68.0408 46.9154 68.4008 47.0884 68.4008C47.2614 68.4008 47.4024 68.0408 47.4024 67.6008C47.4024 67.1608 47.2614 66.8008 47.0884 66.8008C46.9154 66.8008 46.7734 67.1608 46.7734 67.6008Z" fill="white"></path> <path fill-rule="evenodd" clip-rule="evenodd" d="M46.7734 67.6008C46.7734 68.0408 46.9154 68.4008 47.0884 68.4008C47.2614 68.4008 47.4024 68.0408 47.4024 67.6008C47.4024 67.1608 47.2614 66.8008 47.0884 66.8008C46.9154 66.8008 46.7734 67.1608 46.7734 67.6008Z" fill="white"></path> <path fill-rule="evenodd" clip-rule="evenodd" d="M46.7734 67.6008C46.7734 68.0408 46.9154 68.4008 47.0884 68.4008C47.2614 68.4008 47.4024 68.0408 47.4024 67.6008C47.4024 67.1608 47.2614 66.8008 47.0884 66.8008C46.9154 66.8008 46.7734 67.1608 46.7734 67.6008Z" fill="white"></path> </svg> 