<?xml version="1.0" encoding="UTF-8"?> <svg xmlns="http://www.w3.org/2000/svg" width="12" height="225" viewBox="0 0 12 225" fill="none"> <path d="M6 221.667C7.47276 221.667 8.66667 220.473 8.66667 219C8.66667 217.527 7.47276 216.333 6 216.333C4.52724 216.333 3.33333 217.527 3.33333 219C3.33333 220.473 4.52724 221.667 6 221.667ZM6.00001 8.66667C7.47277 8.66667 8.66668 7.47276 8.66668 6C8.66668 4.52724 7.47277 3.33333 6.00001 3.33333C4.52725 3.33333 3.33334 4.52724 3.33334 6C3.33334 7.47276 4.52725 8.66667 6.00001 8.66667ZM6.5 219L6.5 216.042L5.5 216.042L5.5 219L6.5 219ZM6.5 210.125L6.5 204.208L5.5 204.208L5.5 210.125L6.5 210.125ZM6.5 198.292L6.5 192.375L5.5 192.375L5.5 198.292L6.5 198.292ZM6.5 186.458L6.5 180.542L5.5 180.542L5.5 186.458L6.5 186.458ZM6.5 174.625L6.5 168.708L5.5 168.708L5.5 174.625L6.5 174.625ZM6.5 162.792L6.5 156.875L5.5 156.875L5.5 162.792L6.5 162.792ZM6.5 150.958L6.5 145.042L5.5 145.042L5.5 150.958L6.5 150.958ZM6.5 139.125L6.5 133.208L5.5 133.208L5.5 139.125L6.5 139.125ZM6.5 127.292L6.5 121.375L5.5 121.375L5.5 127.292L6.5 127.292ZM6.5 115.458L6.5 109.542L5.5 109.542L5.5 115.458L6.5 115.458ZM6.50001 103.625L6.50001 97.7084L5.50001 97.7084L5.50001 103.625L6.50001 103.625ZM6.50001 91.7917L6.50001 85.875L5.50001 85.875L5.50001 91.7917L6.50001 91.7917ZM6.50001 79.9583L6.50001 74.0417L5.50001 74.0417L5.50001 79.9583L6.50001 79.9583ZM6.50001 68.125L6.50001 62.2083L5.50001 62.2083L5.50001 68.125L6.50001 68.125ZM6.50001 56.2917L6.50001 50.375L5.50001 50.375L5.50001 56.2917L6.50001 56.2917ZM6.50001 44.4583L6.50001 38.5416L5.50001 38.5416L5.50001 44.4583L6.50001 44.4583ZM6.50001 32.625L6.50001 26.7083L5.50001 26.7083L5.50001 32.625L6.50001 32.625ZM6.50001 20.7916L6.50001 14.875L5.50001 14.875L5.50001 20.7916L6.50001 20.7916ZM6.50001 8.95828L6.50001 6L5.50001 6L5.50001 8.95828L6.50001 8.95828ZM6 224.333C8.94552 224.333 11.3333 221.946 11.3333 219C11.3333 216.054 8.94552 213.667 6 213.667C3.05448 213.667 0.666667 216.054 0.666667 219C0.666666 221.946 3.05448 224.333 6 224.333ZM6.00001 11.3333C8.94553 11.3333 11.3333 8.94553 11.3333 6C11.3333 3.05447 8.94553 0.666672 6.00001 0.666672C3.05449 0.666672 0.666676 3.05447 0.666676 6C0.666676 8.94553 3.05449 11.3333 6.00001 11.3333ZM7 219L7 216.042L5 216.042L5 219L7 219ZM7 210.125L7 204.208L5 204.208L5 210.125L7 210.125ZM7 198.292L7 192.375L5 192.375L5 198.292L7 198.292ZM7 186.458L7 180.542L5 180.542L5 186.458L7 186.458ZM7 174.625L7 168.708L5 168.708L5 174.625L7 174.625ZM7 162.792L7 156.875L5 156.875L5 162.792L7 162.792ZM7 150.958L7 145.042L5 145.042L5 150.958L7 150.958ZM7 139.125L7 133.208L5 133.208L5 139.125L7 139.125ZM7 127.292L7 121.375L5 121.375L5 127.292L7 127.292ZM7 115.458L7 109.542L5 109.542L5 115.458L7 115.458ZM7.00001 103.625L7.00001 97.7084L5.00001 97.7084L5.00001 103.625L7.00001 103.625ZM7.00001 91.7917L7.00001 85.875L5.00001 85.875L5.00001 91.7917L7.00001 91.7917ZM7.00001 79.9583L7.00001 74.0417L5.00001 74.0417L5.00001 79.9583L7.00001 79.9583ZM7.00001 68.125L7.00001 62.2083L5.00001 62.2083L5.00001 68.125L7.00001 68.125ZM7.00001 56.2917L7.00001 50.375L5.00001 50.375L5.00001 56.2917L7.00001 56.2917ZM7.00001 44.4583L7.00001 38.5416L5.00001 38.5416L5.00001 44.4583L7.00001 44.4583ZM7.00001 32.625L7.00001 26.7083L5.00001 26.7083L5.00001 32.625L7.00001 32.625ZM7.00001 20.7916L7.00001 14.875L5.00001 14.875L5.00001 20.7916L7.00001 20.7916ZM7.00001 8.95828L7.00001 6L5.00001 6L5.00001 8.95828L7.00001 8.95828Z" fill="white"></path> </svg> 