<?xml version="1.0" encoding="UTF-8"?> <svg xmlns="http://www.w3.org/2000/svg" width="12" height="310" viewBox="0 0 12 310" fill="none"> <path d="M6 306.667C7.47276 306.667 8.66667 305.473 8.66667 304C8.66667 302.527 7.47276 301.333 6 301.333C4.52724 301.333 3.33333 302.527 3.33333 304C3.33333 305.473 4.52724 306.667 6 306.667ZM6.00001 8.66666C7.47277 8.66666 8.66668 7.47275 8.66668 6C8.66668 4.52725 7.47277 3.33334 6.00001 3.33334C4.52725 3.33334 3.33335 4.52725 3.33335 6C3.33335 7.47275 4.52725 8.66666 6.00001 8.66666ZM6.5 304L6.5 301.02L5.5 301.02L5.5 304L6.5 304ZM6.5 295.06L6.5 289.1L5.5 289.1L5.5 295.06L6.5 295.06ZM6.5 283.14L6.5 277.18L5.5 277.18L5.5 283.14L6.5 283.14ZM6.5 271.22L6.5 265.26L5.5 265.26L5.5 271.22L6.5 271.22ZM6.5 259.3L6.5 253.34L5.5 253.34L5.5 259.3L6.5 259.3ZM6.5 247.38L6.5 241.42L5.5 241.42L5.5 247.38L6.5 247.38ZM6.5 235.46L6.5 229.5L5.5 229.5L5.5 235.46L6.5 235.46ZM6.5 223.54L6.5 217.58L5.5 217.58L5.5 223.54L6.5 223.54ZM6.5 211.62L6.5 205.66L5.5 205.66L5.5 211.62L6.5 211.62ZM6.5 199.7L6.5 193.74L5.5 193.74L5.5 199.7L6.5 199.7ZM6.50001 187.78L6.50001 181.82L5.50001 181.82L5.50001 187.78L6.50001 187.78ZM6.50001 175.86L6.50001 169.9L5.50001 169.9L5.50001 175.86L6.50001 175.86ZM6.50001 163.94L6.50001 157.98L5.50001 157.98L5.50001 163.94L6.50001 163.94ZM6.50001 152.02L6.50001 146.06L5.50001 146.06L5.50001 152.02L6.50001 152.02ZM6.50001 140.1L6.50001 134.14L5.50001 134.14L5.50001 140.1L6.50001 140.1ZM6.50001 128.18L6.50001 122.22L5.50001 122.22L5.50001 128.18L6.50001 128.18ZM6.50001 116.26L6.50001 110.3L5.50001 110.3L5.50001 116.26L6.50001 116.26ZM6.50001 104.34L6.50001 98.3799L5.50001 98.3799L5.50001 104.34L6.50001 104.34ZM6.50001 92.4199L6.50001 86.4599L5.50001 86.4599L5.50001 92.4199L6.50001 92.4199ZM6.50001 80.4999L6.50001 74.5399L5.50001 74.5399L5.50001 80.4999L6.50001 80.4999ZM6.50001 68.5799L6.50001 62.6199L5.50001 62.6199L5.50001 68.5799L6.50001 68.5799ZM6.50001 56.6599L6.50001 50.6999L5.50001 50.6999L5.50001 56.6599L6.50001 56.6599ZM6.50001 44.7399L6.50001 38.7799L5.50001 38.7799L5.50001 44.7399L6.50001 44.7399ZM6.50001 32.8199L6.50001 26.8599L5.50001 26.8599L5.50001 32.8199L6.50001 32.8199ZM6.50001 20.8999L6.50001 14.9399L5.50001 14.9399L5.50001 20.8999L6.50001 20.8999ZM6.50001 8.97992L6.50001 6L5.50001 6L5.50001 8.97992L6.50001 8.97992ZM6 309.333C8.94552 309.333 11.3333 306.946 11.3333 304C11.3333 301.054 8.94552 298.667 6 298.667C3.05448 298.667 0.666667 301.054 0.666667 304C0.666666 306.946 3.05448 309.333 6 309.333ZM6.00001 11.3333C8.94553 11.3333 11.3333 8.94553 11.3333 6C11.3333 3.05447 8.94553 0.666657 6.00001 0.666656C3.05449 0.666656 0.66668 3.05447 0.66668 6C0.666679 8.94553 3.05449 11.3333 6.00001 11.3333ZM7 304L7 301.02L5 301.02L5 304L7 304ZM7 295.06L7 289.1L5 289.1L5 295.06L7 295.06ZM7 283.14L7 277.18L5 277.18L5 283.14L7 283.14ZM7 271.22L7 265.26L5 265.26L5 271.22L7 271.22ZM7 259.3L7 253.34L5 253.34L5 259.3L7 259.3ZM7 247.38L7 241.42L5 241.42L5 247.38L7 247.38ZM7 235.46L7 229.5L5 229.5L5 235.46L7 235.46ZM7 223.54L7 217.58L5 217.58L5 223.54L7 223.54ZM7 211.62L7 205.66L5 205.66L5 211.62L7 211.62ZM7 199.7L7 193.74L5 193.74L5 199.7L7 199.7ZM7.00001 187.78L7.00001 181.82L5.00001 181.82L5.00001 187.78L7.00001 187.78ZM7.00001 175.86L7.00001 169.9L5.00001 169.9L5.00001 175.86L7.00001 175.86ZM7.00001 163.94L7.00001 157.98L5.00001 157.98L5.00001 163.94L7.00001 163.94ZM7.00001 152.02L7.00001 146.06L5.00001 146.06L5.00001 152.02L7.00001 152.02ZM7.00001 140.1L7.00001 134.14L5.00001 134.14L5.00001 140.1L7.00001 140.1ZM7.00001 128.18L7.00001 122.22L5.00001 122.22L5.00001 128.18L7.00001 128.18ZM7.00001 116.26L7.00001 110.3L5.00001 110.3L5.00001 116.26L7.00001 116.26ZM7.00001 104.34L7.00001 98.3799L5.00001 98.3799L5.00001 104.34L7.00001 104.34ZM7.00001 92.4199L7.00001 86.4599L5.00001 86.4599L5.00001 92.4199L7.00001 92.4199ZM7.00001 80.4999L7.00001 74.5399L5.00001 74.5399L5.00001 80.4999L7.00001 80.4999ZM7.00001 68.5799L7.00001 62.6199L5.00001 62.6199L5.00001 68.5799L7.00001 68.5799ZM7.00001 56.6599L7.00001 50.6999L5.00001 50.6999L5.00001 56.6599L7.00001 56.6599ZM7.00001 44.7399L7.00001 38.7799L5.00001 38.7799L5.00001 44.7399L7.00001 44.7399ZM7.00001 32.8199L7.00001 26.8599L5.00001 26.8599L5.00001 32.8199L7.00001 32.8199ZM7.00001 20.8999L7.00001 14.9399L5.00001 14.9399L5.00001 20.8999L7.00001 20.8999ZM7.00001 8.97992L7.00001 6L5.00001 6L5.00001 8.97992L7.00001 8.97992Z" fill="white"></path> </svg> 