<svg viewBox="0 0 32 32" fill="none" xmlns="http://www.w3.org/2000/svg">
    <path fill-rule="evenodd" clip-rule="evenodd"
        d="M16.6003 2.15384C8.95332 2.15384 2.75419 8.35298 2.75419 16C2.75419 23.647 8.95332 29.8462 16.6003 29.8462C24.2474 29.8462 30.4465 23.647 30.4465 16C30.4465 14.8867 30.3152 13.8048 30.0676 12.7688C29.9935 12.4589 30.1847 12.1476 30.4946 12.0735C30.8045 11.9994 31.1157 12.1906 31.1898 12.5005C31.4583 13.6239 31.6003 14.7957 31.6003 16C31.6003 24.2842 24.8846 31 16.6003 31C8.31607 31 1.60034 24.2842 1.60034 16C1.60034 7.71573 8.31607 1 16.6003 1C19.3315 1 21.8939 1.73047 24.1007 3.00708C24.3766 3.16663 24.4708 3.51955 24.3113 3.79535C24.1517 4.07116 23.7988 4.1654 23.523 4.00586C21.487 2.8281 19.1233 2.15384 16.6003 2.15384ZM30.4699 4.53436C30.6951 4.75966 30.6951 5.12495 30.4699 5.35025L16.1196 19.7005L8.98086 12.5618C8.75555 12.3364 8.75555 11.9712 8.98086 11.7459C9.20616 11.5206 9.57144 11.5206 9.79674 11.7459L16.1196 18.0688L29.6539 4.53436C29.8792 4.30906 30.2445 4.30906 30.4699 4.53436Z"
        fill="black" />
</svg>