<?xml version="1.0" encoding="UTF-8"?> <svg xmlns="http://www.w3.org/2000/svg" width="2124" height="403" viewBox="0 0 2124 403" fill="none"> <path d="M2123.5 222.139C2123.5 222.139 1737.65 -48.8624 1479 9.1394C1431 19.9011 1369.48 28.117 1359.29 48.2895C1348.31 70.055 1386.23 85.8991 1375.67 107.841C1358.87 142.731 1304.18 64.3179 1271.43 87.8236C1233.32 115.179 1269.8 186.909 1272.52 201.422C1275.25 215.934 1281.41 234.044 1260.52 240.956C1229.94 251.074 1203.22 223.44 1190.67 199.42C1178.11 175.399 1178.66 155.382 1162.29 135.365C1145.92 115.347 1145.92 116.348 1131.73 107.841C1117.54 99.3334 1095.17 97.3317 1094.07 135.365C1092.98 173.398 1091.35 181.905 1086.98 206.426C1082.61 230.947 1068.97 252.465 1031.32 275.485C993.662 298.505 981.11 301.508 925.447 306.512C869.783 311.517 837.382 307.681 784.106 293.501C748.256 283.959 729.534 272.983 696.245 258.971C662.957 244.959 566.334 213.565 484.507 229.446C449.537 236.233 431.102 244.882 398.829 258.971C343.218 283.249 321.337 309.015 267.856 339.541C214.376 370.067 162.91 392.535 88.8604 400.093C54.7591 403.573 0.999512 400.093 0.999512 400.093" stroke="#5B6248"></path> </svg> 