<?xml version="1.0" encoding="UTF-8"?> <svg xmlns="http://www.w3.org/2000/svg" width="12" height="152" viewBox="0 0 12 152" fill="none"> <path d="M6 148.667C7.47276 148.667 8.66667 147.473 8.66667 146C8.66667 144.527 7.47276 143.333 6 143.333C4.52724 143.333 3.33333 144.527 3.33333 146C3.33333 147.473 4.52724 148.667 6 148.667ZM6.00001 8.66667C7.47277 8.66667 8.66667 7.47276 8.66667 6C8.66667 4.52724 7.47277 3.33333 6.00001 3.33333C4.52725 3.33333 3.33334 4.52724 3.33334 6C3.33334 7.47276 4.52725 8.66667 6.00001 8.66667ZM6.5 146L6.5 143.083L5.5 143.083L5.5 146L6.5 146ZM6.5 137.25L6.5 131.417L5.5 131.417L5.5 137.25L6.5 137.25ZM6.5 125.583L6.5 119.75L5.5 119.75L5.5 125.583L6.5 125.583ZM6.5 113.917L6.5 108.083L5.5 108.083L5.5 113.917L6.5 113.917ZM6.5 102.25L6.5 96.4167L5.5 96.4167L5.5 102.25L6.5 102.25ZM6.5 90.5833L6.5 84.75L5.5 84.75L5.5 90.5833L6.5 90.5833ZM6.5 78.9167L6.5 73.0833L5.5 73.0833L5.5 78.9167L6.5 78.9167ZM6.5 67.25L6.5 61.4167L5.5 61.4167L5.5 67.25L6.5 67.25ZM6.5 55.5833L6.5 49.75L5.5 49.75L5.5 55.5833L6.5 55.5833ZM6.5 43.9167L6.5 38.0833L5.5 38.0833L5.5 43.9167L6.5 43.9167ZM6.5 32.25L6.50001 26.4166L5.50001 26.4166L5.5 32.25L6.5 32.25ZM6.50001 20.5833L6.50001 14.75L5.50001 14.75L5.50001 20.5833L6.50001 20.5833ZM6.50001 8.91666L6.50001 6L5.50001 6L5.50001 8.91666L6.50001 8.91666ZM6 151.333C8.94552 151.333 11.3333 148.946 11.3333 146C11.3333 143.054 8.94552 140.667 6 140.667C3.05448 140.667 0.666667 143.054 0.666667 146C0.666666 148.946 3.05448 151.333 6 151.333ZM6.00001 11.3333C8.94552 11.3333 11.3333 8.94553 11.3333 6C11.3333 3.05447 8.94553 0.666672 6.00001 0.666672C3.05449 0.666672 0.666673 3.05447 0.666673 6C0.666672 8.94553 3.05449 11.3333 6.00001 11.3333ZM7 146L7 143.083L5 143.083L5 146L7 146ZM7 137.25L7 131.417L5 131.417L5 137.25L7 137.25ZM7 125.583L7 119.75L5 119.75L5 125.583L7 125.583ZM7 113.917L7 108.083L5 108.083L5 113.917L7 113.917ZM7 102.25L7 96.4167L5 96.4167L5 102.25L7 102.25ZM7 90.5833L7 84.75L5 84.75L5 90.5833L7 90.5833ZM7 78.9167L7 73.0833L5 73.0833L5 78.9167L7 78.9167ZM7 67.25L7 61.4167L5 61.4167L5 67.25L7 67.25ZM7 55.5833L7 49.75L5 49.75L5 55.5833L7 55.5833ZM7 43.9167L7 38.0833L5 38.0833L5 43.9167L7 43.9167ZM7 32.25L7.00001 26.4166L5.00001 26.4166L5 32.25L7 32.25ZM7.00001 20.5833L7.00001 14.75L5.00001 14.75L5.00001 20.5833L7.00001 20.5833ZM7.00001 8.91666L7.00001 6L5.00001 6L5.00001 8.91666L7.00001 8.91666Z" fill="white"></path> </svg> 