<?xml version="1.0" encoding="UTF-8"?> <svg xmlns="http://www.w3.org/2000/svg" width="2124" height="403" viewBox="0 0 2124 403" fill="none"> <path d="M1 180.5C1 180.5 386.841 451.502 645.5 393.5C693.492 382.739 755.021 374.523 765.203 354.35C776.188 332.585 738.27 316.741 748.831 294.799C765.624 259.909 820.314 338.322 853.063 314.816C891.178 287.46 854.701 215.731 851.972 201.218C849.243 186.706 843.089 168.595 863.978 161.684C894.56 151.566 921.278 179.199 933.83 203.22C946.382 227.241 945.836 247.258 962.207 267.275C978.579 287.293 978.579 286.292 992.768 294.799C1006.96 303.307 1029.33 305.308 1030.42 267.275C1031.51 229.242 1033.15 220.735 1037.52 196.214C1041.88 171.693 1055.53 150.174 1093.18 127.154C1130.83 104.134 1143.39 101.132 1199.05 96.1276C1254.71 91.1232 1287.11 94.9584 1340.39 109.139C1376.24 118.681 1394.96 129.656 1428.25 143.669C1461.54 157.681 1558.16 189.075 1639.99 173.194C1674.96 166.407 1693.39 157.758 1725.67 143.669C1781.28 119.391 1803.16 93.6253 1856.64 63.0991C1910.12 32.5729 1961.59 10.1046 2035.64 2.54687C2069.74 -0.933589 2123.5 2.54687 2123.5 2.54687" stroke="white"></path> </svg> 