<?xml version="1.0" encoding="UTF-8"?> <svg xmlns="http://www.w3.org/2000/svg" width="12" height="226" viewBox="0 0 12 226" fill="none"> <path d="M6 222.667C7.47276 222.667 8.66667 221.473 8.66667 220C8.66667 218.527 7.47276 217.333 6 217.333C4.52724 217.333 3.33333 218.527 3.33333 220C3.33333 221.473 4.52724 222.667 6 222.667ZM6.00001 8.66666C7.47277 8.66666 8.66668 7.47275 8.66668 5.99998C8.66668 4.52722 7.47277 3.33331 6.00001 3.33331C4.52725 3.33331 3.33334 4.52722 3.33334 5.99998C3.33334 7.47275 4.52725 8.66666 6.00001 8.66666ZM6.5 220L6.5 217.028L5.5 217.028L5.5 220L6.5 220ZM6.5 211.083L6.5 205.139L5.5 205.139L5.5 211.083L6.5 211.083ZM6.5 199.194L6.5 193.25L5.5 193.25L5.5 199.194L6.5 199.194ZM6.5 187.306L6.5 181.361L5.5 181.361L5.5 187.306L6.5 187.306ZM6.5 175.417L6.5 169.472L5.5 169.472L5.5 175.417L6.5 175.417ZM6.5 163.528L6.5 157.583L5.5 157.583L5.5 163.528L6.5 163.528ZM6.5 151.639L6.5 145.694L5.5 145.694L5.5 151.639L6.5 151.639ZM6.5 139.75L6.5 133.806L5.5 133.806L5.5 139.75L6.5 139.75ZM6.5 127.861L6.5 121.917L5.5 121.917L5.5 127.861L6.5 127.861ZM6.5 115.972L6.5 110.028L5.5 110.028L5.5 115.972L6.5 115.972ZM6.50001 104.083L6.50001 98.1389L5.50001 98.1389L5.50001 104.083L6.50001 104.083ZM6.50001 92.1945L6.50001 86.25L5.50001 86.25L5.50001 92.1945L6.50001 92.1945ZM6.50001 80.3056L6.50001 74.3611L5.50001 74.3611L5.50001 80.3056L6.50001 80.3056ZM6.50001 68.4167L6.50001 62.4722L5.50001 62.4722L5.50001 68.4167L6.50001 68.4167ZM6.50001 56.5278L6.50001 50.5834L5.50001 50.5834L5.50001 56.5278L6.50001 56.5278ZM6.50001 44.6389L6.50001 38.6945L5.50001 38.6945L5.50001 44.6389L6.50001 44.6389ZM6.50001 32.75L6.50001 26.8056L5.50001 26.8056L5.50001 32.75L6.50001 32.75ZM6.50001 20.8611L6.50001 14.9167L5.50001 14.9167L5.50001 20.8611L6.50001 20.8611ZM6.50001 8.97226L6.50001 5.99998L5.50001 5.99998L5.50001 8.97226L6.50001 8.97226ZM6 225.333C8.94552 225.333 11.3333 222.946 11.3333 220C11.3333 217.054 8.94552 214.667 6 214.667C3.05448 214.667 0.666667 217.054 0.666667 220C0.666666 222.946 3.05448 225.333 6 225.333ZM6.00001 11.3333C8.94553 11.3333 11.3333 8.94551 11.3333 5.99998C11.3333 3.05446 8.94553 0.666657 6.00001 0.666656C3.05449 0.666656 0.666676 3.05446 0.666676 5.99998C0.666676 8.94551 3.05449 11.3333 6.00001 11.3333ZM7 220L7 217.028L5 217.028L5 220L7 220ZM7 211.083L7 205.139L5 205.139L5 211.083L7 211.083ZM7 199.194L7 193.25L5 193.25L5 199.194L7 199.194ZM7 187.306L7 181.361L5 181.361L5 187.306L7 187.306ZM7 175.417L7 169.472L5 169.472L5 175.417L7 175.417ZM7 163.528L7 157.583L5 157.583L5 163.528L7 163.528ZM7 151.639L7 145.694L5 145.694L5 151.639L7 151.639ZM7 139.75L7 133.806L5 133.806L5 139.75L7 139.75ZM7 127.861L7 121.917L5 121.917L5 127.861L7 127.861ZM7 115.972L7 110.028L5 110.028L5 115.972L7 115.972ZM7.00001 104.083L7.00001 98.1389L5.00001 98.1389L5.00001 104.083L7.00001 104.083ZM7.00001 92.1945L7.00001 86.25L5.00001 86.25L5.00001 92.1945L7.00001 92.1945ZM7.00001 80.3056L7.00001 74.3611L5.00001 74.3611L5.00001 80.3056L7.00001 80.3056ZM7.00001 68.4167L7.00001 62.4722L5.00001 62.4722L5.00001 68.4167L7.00001 68.4167ZM7.00001 56.5278L7.00001 50.5834L5.00001 50.5834L5.00001 56.5278L7.00001 56.5278ZM7.00001 44.6389L7.00001 38.6945L5.00001 38.6945L5.00001 44.6389L7.00001 44.6389ZM7.00001 32.75L7.00001 26.8056L5.00001 26.8056L5.00001 32.75L7.00001 32.75ZM7.00001 20.8611L7.00001 14.9167L5.00001 14.9167L5.00001 20.8611L7.00001 20.8611ZM7.00001 8.97226L7.00001 5.99998L5.00001 5.99998L5.00001 8.97226L7.00001 8.97226Z" fill="white"></path> </svg> 