<?xml version="1.0" encoding="UTF-8"?> <svg xmlns="http://www.w3.org/2000/svg" width="12" height="216" viewBox="0 0 12 216" fill="none"> <path d="M6 212.667C7.47276 212.667 8.66667 211.473 8.66667 210C8.66667 208.527 7.47276 207.333 6 207.333C4.52724 207.333 3.33333 208.527 3.33333 210C3.33333 211.473 4.52724 212.667 6 212.667ZM6.00001 8.66667C7.47277 8.66667 8.66668 7.47276 8.66668 6C8.66668 4.52724 7.47277 3.33333 6.00001 3.33333C4.52725 3.33333 3.33334 4.52724 3.33334 6C3.33334 7.47276 4.52725 8.66667 6.00001 8.66667ZM6.5 210L6.5 207L5.5 207L5.5 210L6.5 210ZM6.5 201L6.5 195L5.5 195L5.5 201L6.5 201ZM6.5 189L6.5 183L5.5 183L5.5 189L6.5 189ZM6.5 177L6.5 171L5.5 171L5.5 177L6.5 177ZM6.5 165L6.5 159L5.5 159L5.5 165L6.5 165ZM6.5 153L6.5 147L5.5 147L5.5 153L6.5 153ZM6.5 141L6.5 135L5.5 135L5.5 141L6.5 141ZM6.5 129L6.5 123L5.5 123L5.5 129L6.5 129ZM6.5 117L6.5 111L5.5 111L5.5 117L6.5 117ZM6.5 105L6.5 99L5.5 99L5.5 105L6.5 105ZM6.50001 93L6.50001 87L5.50001 87L5.50001 93L6.50001 93ZM6.50001 81L6.50001 75L5.50001 75L5.50001 81L6.50001 81ZM6.50001 69L6.50001 63L5.50001 63L5.50001 69L6.50001 69ZM6.50001 57L6.50001 51L5.50001 51L5.50001 57L6.50001 57ZM6.50001 45L6.50001 39L5.50001 39L5.50001 45L6.50001 45ZM6.50001 33L6.50001 27L5.50001 27L5.50001 33L6.50001 33ZM6.50001 21L6.50001 15L5.50001 15L5.50001 21L6.50001 21ZM6.50001 9L6.50001 6L5.50001 6L5.50001 9L6.50001 9ZM6 215.333C8.94552 215.333 11.3333 212.946 11.3333 210C11.3333 207.054 8.94552 204.667 6 204.667C3.05448 204.667 0.666667 207.054 0.666667 210C0.666666 212.946 3.05448 215.333 6 215.333ZM6.00001 11.3333C8.94553 11.3333 11.3333 8.94553 11.3333 6C11.3333 3.05447 8.94553 0.666672 6.00001 0.666672C3.05449 0.666672 0.666676 3.05447 0.666675 6C0.666675 8.94553 3.05449 11.3333 6.00001 11.3333ZM7 210L7 207L5 207L5 210L7 210ZM7 201L7 195L5 195L5 201L7 201ZM7 189L7 183L5 183L5 189L7 189ZM7 177L7 171L5 171L5 177L7 177ZM7 165L7 159L5 159L5 165L7 165ZM7 153L7 147L5 147L5 153L7 153ZM7 141L7 135L5 135L5 141L7 141ZM7 129L7 123L5 123L5 129L7 129ZM7 117L7 111L5 111L5 117L7 117ZM7 105L7 99L5 99L5 105L7 105ZM7.00001 93L7.00001 87L5.00001 87L5.00001 93L7.00001 93ZM7.00001 81L7.00001 75L5.00001 75L5.00001 81L7.00001 81ZM7.00001 69L7.00001 63L5.00001 63L5.00001 69L7.00001 69ZM7.00001 57L7.00001 51L5.00001 51L5.00001 57L7.00001 57ZM7.00001 45L7.00001 39L5.00001 39L5.00001 45L7.00001 45ZM7.00001 33L7.00001 27L5.00001 27L5.00001 33L7.00001 33ZM7.00001 21L7.00001 15L5.00001 15L5.00001 21L7.00001 21ZM7.00001 9L7.00001 6L5.00001 6L5.00001 9L7.00001 9Z" fill="white"></path> </svg> 